####
#
# OBJ File Generated by Meshlab
#
####
# Object Poluga2.obj
#
# Vertices: 132
# Faces: 268
#
####
vn -0.546243 0.437224 0.714460
v 0.015589 -0.058147 0.302431
vn -0.570414 0.419608 0.706085
v -0.006267 -0.087577 0.302431
vn 0.253278 -0.585274 0.770263
v -0.004419 -0.090352 0.302431
vn 0.511984 -0.380224 0.770261
v -0.005291 -0.091043 0.302431
vn -0.613671 0.381910 0.691052
v -0.007325 -0.089029 0.302431
vn 0.633502 -0.073293 0.770262
v -0.005701 -0.092078 0.302431
vn -0.729962 0.184624 0.658081
v -0.008412 -0.091099 0.302431
vn 0.585275 0.253278 0.770262
v -0.005538 -0.093179 0.302431
vn -0.734108 -0.167378 0.658081
v -0.008440 -0.093436 0.302431
vn 0.380224 0.511983 0.770261
v -0.004847 -0.094051 0.302431
vn -0.577789 -0.482793 0.658081
v -0.007402 -0.095531 0.302431
vn -0.295174 -0.692678 0.658081
v -0.005525 -0.096925 0.302431
vn 0.073291 0.633501 0.770262
v -0.003812 -0.094460 0.302431
vn 0.051963 -0.751152 0.658081
v -0.003220 -0.097313 0.302431
vn -0.253279 0.585276 0.770261
v -0.002711 -0.094298 0.302431
vn 0.387739 -0.645436 0.658081
v -0.000990 -0.096611 0.302431
vn -0.511982 0.380224 0.770262
v -0.001839 -0.093607 0.302431
vn 0.542990 -0.477084 0.691052
v 0.000677 -0.094972 0.302431
vn -0.633502 0.073292 0.770262
v -0.001429 -0.092572 0.302431
vn 0.566576 -0.424777 0.706085
v 0.001761 -0.093540 0.302431
vn -0.585276 -0.253278 0.770261
v -0.001592 -0.091471 0.302431
vn 0.576453 -0.396545 0.714460
v 0.023617 -0.064110 0.302431
vn -0.380223 -0.511983 0.770263
v -0.002283 -0.090599 0.302431
vn -0.073292 -0.633503 0.770261
v -0.003318 -0.090189 0.302431
vn 0.380224 0.511984 -0.770261
v -0.004847 -0.094051 0.298431
vn 0.073291 0.633501 -0.770262
v -0.003812 -0.094460 0.298431
vn 0.051963 -0.751152 -0.658081
v -0.003220 -0.097313 0.298431
vn 0.387739 -0.645436 -0.658081
v -0.000990 -0.096611 0.298431
vn -0.253279 0.585276 -0.770261
v -0.002711 -0.094298 0.298431
vn 0.542990 -0.477084 -0.691052
v 0.000677 -0.094972 0.298431
vn -0.511982 0.380224 -0.770262
v -0.001839 -0.093607 0.298431
vn 0.566576 -0.424777 -0.706085
v 0.001761 -0.093540 0.298431
vn -0.633502 0.073292 -0.770262
v -0.001429 -0.092572 0.298431
vn 0.537726 -0.517667 -0.665486
v 0.024128 -0.063422 0.298431
vn -0.295174 -0.692678 -0.658081
v -0.005525 -0.096925 0.298431
vn -0.577789 -0.482793 -0.658081
v -0.007402 -0.095531 0.298431
vn 0.585275 0.253278 -0.770262
v -0.005538 -0.093179 0.298431
vn -0.734108 -0.167378 -0.658081
v -0.008440 -0.093436 0.298431
vn 0.633502 -0.073293 -0.770262
v -0.005701 -0.092078 0.298431
vn -0.729962 0.184624 -0.658081
v -0.008412 -0.091099 0.298431
vn 0.511984 -0.380224 -0.770261
v -0.005291 -0.091043 0.298431
vn -0.613671 0.381910 -0.691052
v -0.007325 -0.089029 0.298431
vn 0.253278 -0.585274 -0.770263
v -0.004419 -0.090352 0.298431
vn -0.570415 0.419608 -0.706085
v -0.006267 -0.087577 0.298431
vn -0.073292 -0.633504 -0.770261
v -0.003318 -0.090189 0.298431
vn -0.651000 0.365139 -0.665487
v 0.016099 -0.057460 0.298431
vn -0.380223 -0.511983 -0.770263
v -0.002283 -0.090599 0.298431
vn -0.585276 -0.253278 -0.770261
v -0.001592 -0.091471 0.298431
vn -0.494296 0.494238 0.715123
v 0.016431 -0.057013 0.302331
vn 0.616018 -0.330334 0.715123
v 0.024460 -0.062975 0.302331
vn 0.523982 -0.449733 -0.723314
v 0.063356 -0.010600 0.288231
vn 0.523982 -0.449733 0.723314
v 0.063356 -0.010600 0.292231
vn 0.481187 -0.486958 -0.728925
v 0.044995 -0.035323 0.288231
vn 0.588924 -0.406511 0.698511
v 0.046187 -0.033719 0.292231
vn 0.638936 -0.352978 0.683497
v 0.045344 -0.034853 0.292331
vn 0.069304 -0.665475 -0.743195
v 0.066132 -0.007667 0.288231
vn 0.405225 -0.912548 -0.055222
v 0.067787 -0.007231 0.288231
vn 0.406931 -0.535329 -0.740155
v 0.065333 -0.008601 0.288231
vn -0.605260 0.319890 -0.728925
v 0.036967 -0.029361 0.288231
vn -0.563866 -0.337475 -0.753767
v 0.058350 -0.003980 0.288231
vn -0.630102 0.234823 -0.740155
v 0.056670 -0.002168 0.288231
vn -0.650552 -0.106727 -0.751925
v 0.057333 -0.001132 0.288231
vn -0.990665 0.107030 -0.084421
v 0.057272 0.000578 0.288231
vn -0.160083 -0.637345 -0.753767
v 0.063112 -0.007517 0.288231
vn -0.391798 -0.527569 -0.753768
v 0.060379 -0.006222 0.288231
vn -0.581994 0.371619 -0.723314
v 0.055328 -0.004638 0.288231
vn -0.581994 0.371619 0.723314
v 0.055328 -0.004638 0.292231
vn -0.559389 0.446282 0.698511
v 0.038159 -0.027757 0.292231
vn -0.522596 0.509633 0.683497
v 0.037316 -0.028891 0.292331
vn 0.261302 0.594072 0.760789
v 0.062685 -0.005263 0.292231
vn 0.493184 0.421866 0.760789
v 0.060631 -0.003738 0.292231
vn -0.022334 0.648616 0.760788
v 0.065198 -0.005747 0.292231
vn 0.406931 -0.535329 0.740155
v 0.065333 -0.008601 0.292231
vn -0.301545 0.574692 0.760789
v 0.067672 -0.005092 0.292231
vn 0.637323 -0.122557 0.760789
v 0.059353 0.001086 0.292231
vn -0.688419 0.131000 0.713385
v 0.057272 0.000578 0.292231
vn 0.627384 0.166104 0.760789
v 0.059442 -0.001472 0.292231
vn -0.630102 0.234823 0.740155
v 0.056670 -0.002168 0.292231
vn -0.261303 -0.594073 0.760788
v 0.067315 0.005263 0.292231
vn 0.181779 0.723723 0.665719
v 0.066888 0.007517 0.292231
vn 0.022333 -0.648615 0.760789
v 0.064802 0.005747 0.292231
vn -0.109016 0.738196 0.665719
v 0.063868 0.007667 0.292231
vn 0.301546 -0.574692 0.760788
v 0.062328 0.005092 0.292231
vn -0.383213 0.640286 0.665719
v 0.061020 0.006650 0.292231
vn 0.521032 -0.386944 0.760789
v 0.060384 0.003428 0.292231
vn -0.599069 0.444898 0.665719
v 0.058778 0.004621 0.292231
vn -0.702984 0.218542 0.676796
v 0.057483 0.001888 0.292231
vn 0.324397 -0.621167 0.713386
v 0.067787 -0.007231 0.292231
vn 0.412412 -0.609806 0.676796
v 0.068980 -0.006650 0.292231
vn -0.521033 0.386945 0.760788
v 0.069616 -0.003428 0.292231
vn 0.599070 -0.444898 0.665719
v 0.071222 -0.004621 0.292231
vn -0.637323 0.122558 0.760789
v 0.070647 -0.001086 0.292231
vn 0.723723 -0.181778 0.665719
v 0.072517 -0.001888 0.292231
vn -0.627383 -0.166104 0.760789
v 0.070558 0.001472 0.292231
vn 0.738197 0.109015 0.665719
v 0.072667 0.001132 0.292231
vn -0.493183 -0.421866 0.760789
v 0.069370 0.003738 0.292231
vn 0.640286 0.383213 0.665719
v 0.071650 0.003980 0.292231
vn 0.444898 0.599069 0.665719
v 0.069621 0.006222 0.292231
vn -0.471813 0.564206 0.677543
v 0.036490 -0.030003 0.292630
vn -0.456667 0.557840 0.693015
v 0.017257 -0.055901 0.302032
vn 0.676500 -0.288588 0.677543
v 0.044519 -0.035965 0.292630
vn 0.666028 -0.275929 0.693015
v 0.025285 -0.061863 0.302032
vn 0.392400 -0.625931 -0.673968
v 0.068980 -0.006650 0.286231
vn 0.093909 -0.733793 -0.672851
v 0.066132 -0.007667 0.286231
vn -0.716364 0.187283 -0.672122
v 0.057483 0.001888 0.286231
vn -0.738197 -0.109015 -0.665719
v 0.057333 -0.001132 0.286231
vn -0.640286 -0.383213 -0.665719
v 0.058350 -0.003980 0.286231
vn -0.444898 -0.599069 -0.665719
v 0.060379 -0.006222 0.286231
vn -0.181778 -0.723723 -0.665719
v 0.063112 -0.007517 0.286231
vn 0.599070 -0.444898 -0.665719
v 0.071222 -0.004621 0.286231
vn 0.723723 -0.181778 -0.665719
v 0.072517 -0.001888 0.286231
vn 0.738197 0.109015 -0.665719
v 0.072667 0.001132 0.286231
vn 0.640286 0.383213 -0.665719
v 0.071650 0.003980 0.286231
vn 0.444898 0.599069 -0.665719
v 0.069621 0.006222 0.286231
vn 0.181779 0.723723 -0.665719
v 0.066888 0.007517 0.286231
vn -0.109016 0.738196 -0.665719
v 0.063868 0.007667 0.286231
vn -0.383213 0.640286 -0.665719
v 0.061020 0.006650 0.286231
vn -0.599069 0.444898 -0.665719
v 0.058778 0.004621 0.286231
vn 0.493184 0.421866 -0.760789
v 0.060631 -0.003738 0.286231
vn 0.627384 0.166104 -0.760789
v 0.059442 -0.001472 0.286231
vn 0.637323 -0.122557 -0.760789
v 0.059353 0.001086 0.286231
vn 0.521032 -0.386944 -0.760789
v 0.060384 0.003428 0.286231
vn 0.301546 -0.574692 -0.760788
v 0.062328 0.005092 0.286231
vn 0.022333 -0.648615 -0.760789
v 0.064802 0.005747 0.286231
vn -0.261302 -0.594073 -0.760788
v 0.067315 0.005263 0.286231
vn -0.493183 -0.421866 -0.760789
v 0.069370 0.003738 0.286231
vn -0.627383 -0.166104 -0.760789
v 0.070558 0.001472 0.286231
vn -0.637323 0.122558 -0.760789
v 0.070647 -0.001086 0.286231
vn -0.521033 0.386945 -0.760788
v 0.069616 -0.003428 0.286231
vn -0.301545 0.574692 -0.760789
v 0.067672 -0.005092 0.286231
vn -0.022334 0.648616 -0.760788
v 0.065198 -0.005747 0.286231
vn 0.261302 0.594072 -0.760789
v 0.062685 -0.005263 0.286231
# 132 vertices, 0 vertices normals

f 1//1 2//2 3//3
f 3//3 2//2 4//4
f 4//4 2//2 5//5
f 4//4 5//5 6//6
f 6//6 5//5 7//7
f 6//6 7//7 8//8
f 8//8 7//7 9//9
f 8//8 9//9 10//10
f 9//9 11//11 10//10
f 10//10 11//11 12//12
f 10//10 12//12 13//13
f 13//13 12//12 14//14
f 13//13 14//14 15//15
f 15//15 14//14 16//16
f 15//15 16//16 17//17
f 17//17 16//16 18//18
f 17//17 18//18 19//19
f 19//19 18//18 20//20
f 19//19 20//20 21//21
f 21//21 20//20 22//22
f 21//21 22//22 23//23
f 23//23 22//22 1//1
f 23//23 1//1 24//24
f 24//24 1//1 3//3
f 25//25 26//26 27//27
f 27//27 26//26 28//28
f 28//28 26//26 29//29
f 28//28 29//29 30//30
f 30//30 29//29 31//31
f 30//30 31//31 32//32
f 32//32 31//31 33//33
f 32//32 33//33 34//34
f 27//27 35//35 25//25
f 25//25 35//35 36//36
f 25//25 36//36 37//37
f 37//37 36//36 38//38
f 37//37 38//38 39//39
f 39//39 38//38 40//40
f 39//39 40//40 41//41
f 41//41 40//40 42//42
f 41//41 42//42 43//43
f 43//43 42//42 44//44
f 43//43 44//44 45//45
f 45//45 44//44 46//46
f 45//45 46//46 47//47
f 47//47 46//46 34//34
f 47//47 34//34 48//48
f 48//48 34//34 33//33
f 5//5 42//42 40//40
f 5//5 40//40 7//7
f 7//7 40//40 38//38
f 7//7 38//38 9//9
f 9//9 38//38 36//36
f 9//9 36//36 11//11
f 11//11 36//36 35//35
f 11//11 35//35 12//12
f 12//12 35//35 27//27
f 12//12 27//27 14//14
f 14//14 27//27 28//28
f 14//14 28//28 16//16
f 16//16 28//28 30//30
f 16//16 30//30 18//18
f 4//4 41//41 3//3
f 3//3 41//41 43//43
f 3//3 43//43 24//24
f 24//24 43//43 45//45
f 24//24 45//45 23//23
f 23//23 45//45 47//47
f 23//23 47//47 21//21
f 21//21 47//47 48//48
f 21//21 48//48 19//19
f 19//19 48//48 33//33
f 19//19 33//33 17//17
f 17//17 33//33 31//31
f 17//17 31//31 15//15
f 15//15 31//31 29//29
f 15//15 29//29 13//13
f 13//13 29//29 26//26
f 13//13 26//26 10//10
f 10//10 26//26 25//25
f 10//10 25//25 8//8
f 8//8 25//25 37//37
f 8//8 37//37 6//6
f 6//6 37//37 39//39
f 6//6 39//39 4//4
f 4//4 39//39 41//41
f 49//49 46//46 1//1
f 1//1 46//46 44//44
f 1//1 44//44 2//2
f 20//20 32//32 22//22
f 22//22 32//32 34//34
f 22//22 34//34 50//50
f 51//51 52//52 53//53
f 53//53 52//52 54//54
f 53//53 54//54 55//55
f 56//56 57//57 58//58
f 51//51 53//53 59//59
f 60//60 61//61 62//62
f 62//62 61//61 63//63
f 56//56 58//58 64//64
f 64//64 58//58 51//51
f 64//64 51//51 65//65
f 65//65 51//51 59//59
f 65//65 59//59 60//60
f 60//60 59//59 66//66
f 60//60 66//66 61//61
f 67//67 66//66 68//68
f 68//68 66//66 59//59
f 68//68 59//59 69//69
f 70//70 71//71 68//68
f 68//68 54//54 70//70
f 70//70 54//54 52//52
f 70//70 52//52 72//72
f 72//72 52//52 73//73
f 72//72 73//73 74//74
f 75//75 76//76 77//77
f 77//77 76//76 78//78
f 77//77 78//78 71//71
f 71//71 78//78 67//67
f 71//71 67//67 68//68
f 79//79 80//80 81//81
f 81//81 80//80 82//82
f 81//81 82//82 83//83
f 83//83 82//82 84//84
f 83//83 84//84 85//85
f 85//85 84//84 86//86
f 85//85 86//86 75//75
f 75//75 86//86 87//87
f 75//75 87//87 76//76
f 73//73 88//88 74//74
f 74//74 88//88 89//89
f 74//74 89//89 90//90
f 90//90 89//89 91//91
f 90//90 91//91 92//92
f 92//92 91//91 93//93
f 92//92 93//93 94//94
f 94//94 93//93 95//95
f 94//94 95//95 96//96
f 96//96 95//95 97//97
f 96//96 97//97 79//79
f 79//79 97//97 98//98
f 79//79 98//98 80//80
f 99//99 100//100 101//101
f 101//101 100//100 102//102
f 99//99 69//69 59//59
f 99//99 59//59 100//100
f 100//100 59//59 46//46
f 100//100 46//46 49//49
f 53//53 34//34 59//59
f 59//59 34//34 46//46
f 50//50 34//34 102//102
f 102//102 34//34 53//53
f 102//102 53//53 101//101
f 101//101 53//53 55//55
f 18//18 30//30 20//20
f 20//20 30//30 32//32
f 42//42 5//5 44//44
f 44//44 5//5 2//2
f 88//88 57//57 103//103
f 103//103 57//57 104//104
f 62//62 63//63 105//105
f 105//105 106//106 62//62
f 62//62 106//106 107//107
f 62//62 107//107 60//60
f 60//60 107//107 108//108
f 60//60 108//108 65//65
f 65//65 108//108 109//109
f 65//65 109//109 64//64
f 64//64 109//109 104//104
f 64//64 104//104 56//56
f 56//56 104//104 57//57
f 88//88 103//103 89//89
f 89//89 103//103 110//110
f 89//89 110//110 91//91
f 91//91 110//110 111//111
f 91//91 111//111 93//93
f 93//93 111//111 112//112
f 93//93 112//112 95//95
f 95//95 112//112 113//113
f 95//95 113//113 97//97
f 97//97 113//113 114//114
f 97//97 114//114 98//98
f 98//98 114//114 115//115
f 98//98 115//115 80//80
f 80//80 115//115 116//116
f 80//80 116//116 82//82
f 82//82 116//116 117//117
f 82//82 117//117 84//84
f 84//84 117//117 118//118
f 84//84 118//118 86//86
f 86//86 118//118 105//105
f 86//86 105//105 87//87
f 87//87 105//105 63//63
f 87//87 63//63 76//76
f 119//119 107//107 120//120
f 120//120 107//107 106//106
f 120//120 106//106 121//121
f 121//121 106//106 105//105
f 121//121 105//105 122//122
f 122//122 105//105 118//118
f 122//122 118//118 123//123
f 123//123 118//118 117//117
f 123//123 117//117 124//124
f 124//124 117//117 116//116
f 124//124 116//116 125//125
f 116//116 115//115 125//125
f 125//125 115//115 114//114
f 125//125 114//114 126//126
f 126//126 114//114 113//113
f 126//126 113//113 127//127
f 127//127 113//113 112//112
f 127//127 112//112 128//128
f 128//128 112//112 111//111
f 128//128 111//111 129//129
f 129//129 111//111 110//110
f 129//129 110//110 130//130
f 130//130 110//110 103//103
f 130//130 103//103 131//131
f 131//131 103//103 104//104
f 131//131 104//104 132//132
f 132//132 104//104 109//109
f 132//132 109//109 119//119
f 119//119 109//109 108//108
f 119//119 108//108 107//107
f 129//129 90//90 128//128
f 128//128 90//90 92//92
f 128//128 92//92 127//127
f 127//127 92//92 94//94
f 127//127 94//94 126//126
f 126//126 94//94 96//96
f 126//126 96//96 125//125
f 125//125 96//96 79//79
f 125//125 79//79 124//124
f 124//124 79//79 81//81
f 124//124 81//81 123//123
f 123//123 81//81 83//83
f 123//123 83//83 122//122
f 122//122 83//83 85//85
f 122//122 85//85 121//121
f 121//121 85//85 75//75
f 121//121 75//75 120//120
f 120//120 75//75 77//77
f 120//120 77//77 119//119
f 119//119 77//77 71//71
f 119//119 71//71 132//132
f 132//132 71//71 70//70
f 132//132 70//70 131//131
f 131//131 70//70 72//72
f 131//131 72//72 130//130
f 130//130 72//72 74//74
f 130//130 74//74 129//129
f 129//129 74//74 90//90
f 66//66 67//67 61//61
f 61//61 67//67 78//78
f 61//61 78//78 63//63
f 63//63 78//78 76//76
f 57//57 88//88 58//58
f 58//58 88//88 73//73
f 58//58 73//73 51//51
f 51//51 73//73 52//52
f 99//99 101//101 69//69
f 69//69 101//101 55//55
f 69//69 55//55 68//68
f 68//68 55//55 54//54
f 102//102 100//100 50//50
f 50//50 100//100 49//49
f 50//50 49//49 22//22
f 22//22 49//49 1//1
# 268 faces, 0 coords texture

# End of File
