####
#
# OBJ File Generated by Meshlab
#
####
# Object Poluga1.obj
#
# Vertices: 192
# Faces: 400
#
####
vn -0.129260 -0.698140 0.704196
v 0.072878 -0.070770 0.301991
vn -0.129260 -0.698140 -0.704196
v 0.072878 -0.070770 0.297991
vn -0.021049 -0.735958 -0.676700
v 0.075936 -0.071296 0.297991
vn -0.021049 -0.735958 0.676700
v 0.075936 -0.071296 0.301991
vn 0.185292 -0.712562 -0.676700
v 0.079018 -0.070946 0.297991
vn 0.185292 -0.712562 0.676700
v 0.079018 -0.070946 0.301991
vn 0.376892 -0.632479 -0.676700
v 0.081881 -0.069749 0.297991
vn 0.376892 -0.632479 0.676700
v 0.081881 -0.069749 0.301991
vn 0.538509 -0.502081 -0.676700
v 0.084296 -0.067801 0.297991
vn 0.538509 -0.502081 0.676700
v 0.084296 -0.067801 0.301991
vn 0.657287 -0.331740 -0.676700
v 0.086070 -0.065256 0.297991
vn 0.657287 -0.331740 0.676700
v 0.086070 -0.065256 0.301991
vn 0.723774 -0.135009 -0.676700
v 0.087063 -0.062317 0.297991
vn 0.723774 -0.135009 0.676700
v 0.087063 -0.062317 0.301991
vn 0.732685 0.072461 -0.676700
v 0.087197 -0.059217 0.297991
vn 0.732685 0.072461 0.676700
v 0.087197 -0.059217 0.301991
vn 0.683308 0.274169 -0.676700
v 0.086459 -0.056204 0.297991
vn 0.683308 0.274169 0.676700
v 0.086459 -0.056204 0.301991
vn 0.579571 0.454065 -0.676700
v 0.084909 -0.053516 0.297991
vn 0.579571 0.454065 0.676700
v 0.084909 -0.053516 0.301991
vn 0.429728 0.597839 -0.676700
v 0.082670 -0.051368 0.297991
vn 0.429728 0.597839 0.676700
v 0.082670 -0.051368 0.301991
vn 0.245699 0.694053 -0.676700
v 0.079921 -0.049931 0.297991
vn 0.245699 0.694053 0.676700
v 0.079921 -0.049931 0.301991
vn 0.042124 0.735053 -0.676700
v 0.076879 -0.049318 0.297991
vn 0.042124 0.735053 0.676700
v 0.076879 -0.049318 0.301991
vn -0.164802 0.717578 -0.676700
v 0.073788 -0.049579 0.297991
vn -0.164802 0.717578 0.676700
v 0.073788 -0.049579 0.301991
vn -0.358617 0.643017 -0.676700
v 0.070892 -0.050693 0.297991
vn -0.358617 0.643017 0.676700
v 0.070892 -0.050693 0.301991
vn -0.523904 0.517303 -0.676700
v 0.068423 -0.052571 0.297991
vn -0.523904 0.517303 0.676700
v 0.068423 -0.052571 0.301991
vn -0.575965 0.415178 -0.704196
v 0.066576 -0.055064 0.297991
vn -0.575965 0.415178 0.704196
v 0.066576 -0.055064 0.301991
vn 0.501593 -0.393830 0.770261
v 0.072288 -0.052103 0.301991
vn 0.237479 -0.591862 0.770262
v 0.072805 -0.051715 0.301991
vn -0.090269 -0.631306 0.770262
v 0.073448 -0.051638 0.301991
vn -0.393830 -0.501592 0.770262
v 0.074043 -0.051892 0.301991
vn 0.326766 -0.652663 0.683560
v 0.044865 -0.078280 0.301991
vn 0.591861 0.237480 0.770263
v 0.067665 -0.063745 0.301991
vn 0.631306 -0.090269 0.770262
v 0.067588 -0.063102 0.301991
vn -0.591863 -0.237477 0.770261
v 0.074431 -0.052410 0.301991
vn -0.631307 0.090269 0.770262
v 0.074508 -0.053052 0.301991
vn 0.237477 -0.591863 0.770261
v 0.083209 -0.056161 0.301991
vn -0.090269 -0.631306 0.770262
v 0.083852 -0.056084 0.301991
vn -0.393830 -0.501592 0.770262
v 0.084447 -0.056338 0.301991
vn -0.591863 -0.237477 0.770261
v 0.084835 -0.056855 0.301991
vn -0.501595 0.393830 0.770260
v 0.069809 -0.064051 0.301991
vn -0.237479 0.591861 0.770263
v 0.069291 -0.064439 0.301991
vn 0.237475 -0.591860 0.770264
v 0.078764 -0.066565 0.301991
vn -0.591864 -0.237477 0.770261
v 0.069985 -0.062814 0.301991
vn 0.501595 -0.393830 0.770260
v 0.078246 -0.066953 0.301991
vn -0.631306 0.090271 0.770262
v 0.070063 -0.063456 0.301991
vn 0.631306 -0.090271 0.770262
v 0.077992 -0.067548 0.301991
vn 0.591859 0.237481 0.770264
v 0.078069 -0.068190 0.301991
vn 0.393829 0.501597 0.770259
v 0.078457 -0.068708 0.301991
vn 0.090271 0.631306 0.770263
v 0.079052 -0.068962 0.301991
vn -0.237477 0.591863 0.770261
v 0.079695 -0.068885 0.301991
vn 0.393830 0.501595 0.770260
v 0.068053 -0.064262 0.301991
vn 0.220698 -0.657579 0.720335
v 0.062693 -0.071127 0.301991
vn 0.090271 0.631306 0.770263
v 0.068648 -0.064516 0.301991
vn 0.101840 -0.671475 0.733996
v 0.066030 -0.070218 0.301991
vn -0.054636 -0.676953 0.733996
v 0.069486 -0.070097 0.301991
vn -0.631306 0.090270 0.770262
v 0.084912 -0.057498 0.301991
vn -0.501593 0.393830 0.770261
v 0.084658 -0.058093 0.301991
vn -0.393826 -0.501593 0.770263
v 0.080001 -0.066741 0.301991
vn -0.501592 0.393830 0.770262
v 0.080212 -0.068497 0.301991
vn -0.631306 0.090269 0.770262
v 0.080466 -0.067902 0.301991
vn -0.591863 -0.237477 0.770261
v 0.080389 -0.067259 0.301991
vn -0.214977 0.697517 0.683560
v 0.041141 -0.069000 0.301991
vn -0.295026 0.627756 0.720335
v 0.058970 -0.061846 0.301991
vn -0.390526 0.555643 0.733996
v 0.062009 -0.060197 0.301991
vn 0.501594 -0.393829 0.770261
v 0.067842 -0.062507 0.301991
vn -0.507392 0.451446 0.733996
v 0.064590 -0.057896 0.301991
vn 0.237479 -0.591862 0.770262
v 0.068360 -0.062119 0.301991
vn -0.090269 -0.631306 0.770262
v 0.069002 -0.062042 0.301991
vn 0.591863 0.237477 0.770261
v 0.082515 -0.057786 0.301991
vn -0.393830 -0.501591 0.770263
v 0.069597 -0.062296 0.301991
vn 0.393830 0.501592 0.770262
v 0.082903 -0.058304 0.301991
vn 0.631306 -0.090270 0.770262
v 0.072034 -0.052698 0.301991
vn 0.591863 0.237477 0.770261
v 0.072111 -0.053341 0.301991
vn 0.393830 0.501592 0.770262
v 0.072499 -0.053859 0.301991
vn 0.090269 0.631307 0.770262
v 0.073094 -0.054113 0.301991
vn -0.237477 0.591863 0.770261
v 0.073736 -0.054035 0.301991
vn -0.501592 0.393830 0.770262
v 0.074254 -0.053647 0.301991
vn 0.631307 -0.090269 0.770262
v 0.082437 -0.057144 0.301991
vn 0.501592 -0.393830 0.770262
v 0.082691 -0.056549 0.301991
vn -0.237478 0.591862 0.770262
v 0.084140 -0.058481 0.301991
vn 0.090269 0.631306 0.770262
v 0.083498 -0.058558 0.301991
vn -0.090270 -0.631310 0.770259
v 0.079406 -0.066487 0.301991
vn -0.237478 0.591862 -0.770262
v 0.084140 -0.058481 0.297991
vn -0.501593 0.393830 -0.770261
v 0.084658 -0.058093 0.297991
vn -0.631306 0.090270 -0.770262
v 0.084912 -0.057498 0.297991
vn -0.591863 -0.237477 -0.770261
v 0.084835 -0.056855 0.297991
vn -0.591863 -0.237477 -0.770261
v 0.074431 -0.052410 0.297991
vn -0.393830 -0.501592 -0.770262
v 0.074043 -0.051892 0.297991
vn -0.090269 -0.631306 -0.770262
v 0.073448 -0.051638 0.297991
vn 0.591861 0.237480 -0.770262
v 0.067665 -0.063745 0.297991
vn 0.393830 0.501595 -0.770260
v 0.068053 -0.064262 0.297991
vn 0.220698 -0.657579 -0.720335
v 0.062693 -0.071127 0.297991
vn -0.631306 0.090271 -0.770263
v 0.070063 -0.063456 0.297991
vn -0.090270 -0.631310 -0.770259
v 0.079406 -0.066487 0.297991
vn -0.501595 0.393830 -0.770260
v 0.069809 -0.064051 0.297991
vn 0.237476 -0.591861 -0.770264
v 0.078764 -0.066565 0.297991
vn -0.237480 0.591861 -0.770263
v 0.069291 -0.064439 0.297991
vn -0.393830 -0.501592 -0.770262
v 0.084447 -0.056338 0.297991
vn -0.090269 -0.631307 -0.770262
v 0.083852 -0.056084 0.297991
vn 0.237477 -0.591863 -0.770261
v 0.083209 -0.056161 0.297991
vn 0.501592 -0.393830 -0.770262
v 0.082691 -0.056549 0.297991
vn -0.393830 -0.501591 -0.770262
v 0.069597 -0.062296 0.297991
vn 0.631306 -0.090269 -0.770262
v 0.082437 -0.057144 0.297991
vn -0.591864 -0.237476 -0.770261
v 0.069985 -0.062814 0.297991
vn 0.591863 0.237477 -0.770261
v 0.082515 -0.057786 0.297991
vn 0.393830 0.501592 -0.770262
v 0.082903 -0.058304 0.297991
vn -0.295026 0.627756 -0.720335
v 0.058970 -0.061846 0.297991
vn -0.390526 0.555643 -0.733996
v 0.062009 -0.060197 0.297991
vn 0.501594 -0.393829 -0.770261
v 0.067842 -0.062507 0.297991
vn -0.393826 -0.501593 -0.770263
v 0.080001 -0.066741 0.297991
vn 0.090269 0.631307 -0.770262
v 0.083498 -0.058558 0.297991
vn 0.393830 0.501592 -0.770262
v 0.072499 -0.053859 0.297991
vn 0.090269 0.631307 -0.770262
v 0.073094 -0.054113 0.297991
vn 0.197030 -0.662126 -0.723028
v 0.044537 -0.078412 0.297991
vn -0.315273 0.614682 -0.723027
v 0.040814 -0.069131 0.297991
vn 0.237478 -0.591862 -0.770262
v 0.072805 -0.051715 0.297991
vn 0.501593 -0.393830 -0.770261
v 0.072288 -0.052103 0.297991
vn 0.631306 -0.090270 -0.770262
v 0.072034 -0.052698 0.297991
vn 0.591863 0.237477 -0.770261
v 0.072111 -0.053341 0.297991
vn -0.090269 -0.631307 -0.770262
v 0.069002 -0.062042 0.297991
vn 0.237478 -0.591862 -0.770262
v 0.068360 -0.062119 0.297991
vn -0.237477 0.591863 -0.770261
v 0.073736 -0.054035 0.297991
vn -0.501592 0.393830 -0.770262
v 0.074254 -0.053647 0.297991
vn -0.631307 0.090269 -0.770262
v 0.074508 -0.053052 0.297991
vn 0.631307 -0.090269 -0.770262
v 0.067588 -0.063102 0.297991
vn 0.090271 0.631306 -0.770263
v 0.068648 -0.064516 0.297991
vn 0.501595 -0.393830 -0.770260
v 0.078246 -0.066953 0.297991
vn 0.631306 -0.090271 -0.770262
v 0.077992 -0.067548 0.297991
vn -0.591863 -0.237477 -0.770261
v 0.080389 -0.067259 0.297991
vn -0.631306 0.090269 -0.770262
v 0.080466 -0.067902 0.297991
vn -0.501592 0.393830 -0.770262
v 0.080212 -0.068497 0.297991
vn -0.237477 0.591863 -0.770261
v 0.079695 -0.068885 0.297991
vn 0.090271 0.631306 -0.770263
v 0.079052 -0.068962 0.297991
vn -0.507392 0.451446 -0.733996
v 0.064590 -0.057896 0.297991
vn 0.393829 0.501597 -0.770259
v 0.078457 -0.068708 0.297991
vn 0.591859 0.237481 -0.770263
v 0.078069 -0.068190 0.297991
vn -0.054636 -0.676953 -0.733996
v 0.069486 -0.070097 0.297991
vn 0.101840 -0.671475 -0.733996
v 0.066030 -0.070218 0.297991
vn 0.214977 -0.697517 -0.683560
v 0.021335 -0.087721 0.302431
vn -0.591861 -0.237478 -0.770262
v -0.001570 -0.091524 0.302431
vn -0.326766 0.652663 -0.683560
v 0.017612 -0.078440 0.302431
vn -0.393829 -0.501594 -0.770261
v -0.002237 -0.090634 0.302431
vn -0.335960 0.645718 -0.685696
v -0.005427 -0.087684 0.302431
vn 0.090271 0.631307 -0.770262
v -0.003869 -0.094453 0.302431
vn -0.237477 0.591862 -0.770262
v -0.002764 -0.094320 0.302431
vn 0.203532 -0.698853 -0.685697
v -0.001703 -0.096965 0.302431
vn -0.501593 0.393830 -0.770261
v -0.001874 -0.093652 0.302431
vn -0.631306 0.090271 -0.770262
v -0.001437 -0.092629 0.302431
vn -0.008303 -0.746157 -0.665719
v -0.003621 -0.097324 0.302431
vn -0.293212 -0.686181 -0.665719
v -0.005530 -0.096923 0.302431
vn 0.393829 0.501594 -0.770261
v -0.004893 -0.094016 0.302431
vn -0.533483 -0.521742 -0.665719
v -0.007140 -0.095821 0.302431
vn 0.591861 0.237478 -0.770263
v -0.005560 -0.093125 0.302431
vn -0.692536 -0.277871 -0.665719
v -0.008205 -0.094187 0.302431
vn 0.631307 -0.090270 -0.770261
v -0.005693 -0.092020 0.302431
vn -0.090270 -0.631307 -0.770262
v -0.003261 -0.090196 0.302431
vn 0.237477 -0.591862 -0.770262
v -0.004366 -0.090329 0.302431
vn -0.521742 0.533483 -0.665719
v -0.007061 -0.088750 0.302431
vn 0.501593 -0.393829 -0.770262
v -0.005256 -0.090997 0.302431
vn -0.686181 0.293212 -0.665719
v -0.008163 -0.090360 0.302431
vn -0.746157 0.008302 -0.665719
v -0.008565 -0.092269 0.302431
vn 0.203532 -0.698853 0.685697
v -0.001703 -0.096965 0.306431
vn 0.315273 -0.614682 0.723027
v 0.021663 -0.087590 0.306431
vn -0.335960 0.645718 0.685697
v -0.005427 -0.087684 0.306431
vn -0.521742 0.533483 0.665719
v -0.007061 -0.088750 0.306431
vn 0.501593 -0.393829 0.770262
v -0.005256 -0.090997 0.306431
vn -0.686181 0.293212 0.665719
v -0.008163 -0.090360 0.306431
vn 0.631307 -0.090270 0.770261
v -0.005693 -0.092020 0.306431
vn -0.746157 0.008302 0.665719
v -0.008565 -0.092269 0.306431
vn 0.591862 0.237478 0.770262
v -0.005560 -0.093125 0.306431
vn -0.692536 -0.277871 0.665719
v -0.008205 -0.094187 0.306431
vn 0.393829 0.501594 0.770261
v -0.004893 -0.094016 0.306431
vn 0.237477 -0.591862 0.770262
v -0.004366 -0.090329 0.306431
vn -0.090270 -0.631307 0.770262
v -0.003261 -0.090196 0.306431
vn -0.197030 0.662126 0.723027
v 0.017939 -0.078309 0.306431
vn -0.393828 -0.501594 0.770261
v -0.002237 -0.090634 0.306431
vn -0.591862 -0.237478 0.770262
v -0.001570 -0.091524 0.306431
vn -0.631306 0.090271 0.770262
v -0.001437 -0.092629 0.306431
vn -0.501593 0.393830 0.770261
v -0.001874 -0.093652 0.306431
vn -0.237477 0.591862 0.770262
v -0.002764 -0.094320 0.306431
vn -0.008303 -0.746157 0.665719
v -0.003621 -0.097324 0.306431
vn 0.090271 0.631306 0.770262
v -0.003869 -0.094453 0.306431
vn -0.293212 -0.686181 0.665719
v -0.005530 -0.096923 0.306431
vn -0.533483 -0.521742 0.665719
v -0.007140 -0.095821 0.306431
# 192 vertices, 0 vertices normals

f 1//1 2//2 3//3
f 1//1 3//3 4//4
f 4//4 3//3 5//5
f 4//4 5//5 6//6
f 6//6 5//5 7//7
f 6//6 7//7 8//8
f 8//8 7//7 9//9
f 8//8 9//9 10//10
f 10//10 9//9 11//11
f 10//10 11//11 12//12
f 12//12 11//11 13//13
f 12//12 13//13 14//14
f 14//14 13//13 15//15
f 14//14 15//15 16//16
f 16//16 15//15 17//17
f 16//16 17//17 18//18
f 18//18 17//17 19//19
f 18//18 19//19 20//20
f 20//20 19//19 21//21
f 20//20 21//21 22//22
f 22//22 21//21 23//23
f 22//22 23//23 24//24
f 24//24 23//23 25//25
f 24//24 25//25 26//26
f 26//26 25//25 27//27
f 26//26 27//27 28//28
f 28//28 27//27 29//29
f 28//28 29//29 30//30
f 30//30 29//29 31//31
f 30//30 31//31 32//32
f 32//32 31//31 33//33
f 32//32 33//33 34//34
f 30//30 35//35 36//36
f 30//30 36//36 28//28
f 28//28 36//36 37//37
f 28//28 37//37 26//26
f 26//26 37//37 38//38
f 26//26 38//38 24//24
f 39//39 40//40 41//41
f 42//42 43//43 44//44
f 38//38 42//42 24//24
f 24//24 42//42 44//44
f 24//24 44//44 22//22
f 22//22 44//44 45//45
f 22//22 45//45 20//20
f 20//20 45//45 46//46
f 20//20 46//46 18//18
f 18//18 46//46 47//47
f 18//18 47//47 16//16
f 48//48 49//49 1//1
f 50//50 51//51 52//52
f 52//52 51//51 53//53
f 52//52 53//53 54//54
f 54//54 53//53 48//48
f 54//54 48//48 55//55
f 55//55 48//48 1//1
f 55//55 1//1 56//56
f 56//56 1//1 4//4
f 56//56 4//4 57//57
f 57//57 4//4 6//6
f 57//57 6//6 58//58
f 40//40 39//39 59//59
f 59//59 39//39 60//60
f 59//59 60//60 61//61
f 61//61 60//60 62//62
f 61//61 62//62 49//49
f 49//49 62//62 63//63
f 49//49 63//63 1//1
f 47//47 64//64 16//16
f 16//16 64//64 65//65
f 16//16 65//65 66//66
f 58//58 6//6 67//67
f 67//67 6//6 8//8
f 67//67 8//8 68//68
f 68//68 8//8 10//10
f 68//68 10//10 69//69
f 69//69 10//10 12//12
f 69//69 12//12 66//66
f 66//66 12//12 14//14
f 66//66 14//14 16//16
f 70//70 39//39 71//71
f 71//71 39//39 41//41
f 71//71 41//41 72//72
f 72//72 41//41 73//73
f 72//72 73//73 74//74
f 74//74 73//73 34//34
f 75//75 76//76 77//77
f 77//77 76//76 78//78
f 77//77 78//78 79//79
f 35//35 30//30 80//80
f 80//80 30//30 32//32
f 80//80 32//32 81//81
f 81//81 32//32 34//34
f 81//81 34//34 82//82
f 82//82 34//34 73//73
f 82//82 73//73 83//83
f 83//83 73//73 75//75
f 83//83 75//75 84//84
f 84//84 75//75 77//77
f 84//84 77//77 85//85
f 85//85 77//77 86//86
f 85//85 86//86 43//43
f 43//43 86//86 87//87
f 43//43 87//87 44//44
f 65//65 88//88 66//66
f 66//66 88//88 89//89
f 66//66 89//89 90//90
f 90//90 89//89 79//79
f 90//90 79//79 50//50
f 50//50 79//79 78//78
f 50//50 78//78 51//51
f 91//91 92//92 15//15
f 15//15 92//92 93//93
f 15//15 93//93 17//17
f 17//17 93//93 94//94
f 17//17 94//94 19//19
f 23//23 95//95 25//25
f 25//25 95//95 96//96
f 25//25 96//96 27//27
f 27//27 96//96 97//97
f 27//27 97//97 29//29
f 98//98 99//99 100//100
f 101//101 102//102 103//103
f 103//103 102//102 104//104
f 103//103 104//104 105//105
f 94//94 106//106 19//19
f 19//19 106//106 107//107
f 19//19 107//107 21//21
f 21//21 107//107 108//108
f 21//21 108//108 23//23
f 23//23 108//108 109//109
f 23//23 109//109 110//110
f 110//110 109//109 111//111
f 110//110 111//111 112//112
f 112//112 111//111 113//113
f 112//112 113//113 114//114
f 115//115 116//116 117//117
f 101//101 112//112 102//102
f 102//102 112//112 114//114
f 102//102 114//114 118//118
f 118//118 114//114 119//119
f 118//118 119//119 91//91
f 120//120 121//121 110//110
f 122//122 123//123 115//115
f 97//97 124//124 29//29
f 29//29 124//124 125//125
f 29//29 125//125 31//31
f 31//31 125//125 126//126
f 31//31 126//126 33//33
f 33//33 126//126 127//127
f 110//110 128//128 120//120
f 120//120 128//128 129//129
f 120//120 129//129 117//117
f 121//121 130//130 110//110
f 110//110 130//130 131//131
f 110//110 131//131 23//23
f 23//23 131//131 132//132
f 23//23 132//132 95//95
f 100//100 122//122 98//98
f 98//98 122//122 115//115
f 98//98 115//115 133//133
f 133//133 115//115 117//117
f 105//105 104//104 134//134
f 134//134 104//104 135//135
f 134//134 135//135 136//136
f 91//91 15//15 118//118
f 118//118 15//15 13//13
f 118//118 13//13 137//137
f 137//137 13//13 11//11
f 137//137 11//11 138//138
f 138//138 11//11 9//9
f 138//138 9//9 139//139
f 139//139 9//9 7//7
f 139//139 7//7 140//140
f 140//140 7//7 5//5
f 140//140 5//5 141//141
f 127//127 120//120 33//33
f 33//33 120//120 117//117
f 33//33 117//117 142//142
f 142//142 117//117 116//116
f 141//141 5//5 143//143
f 143//143 5//5 3//3
f 143//143 3//3 144//144
f 144//144 3//3 2//2
f 144//144 2//2 136//136
f 136//136 2//2 134//134
f 134//134 2//2 145//145
f 134//134 145//145 99//99
f 99//99 145//145 146//146
f 99//99 146//146 100//100
f 69//69 137//137 68//68
f 68//68 137//137 138//138
f 68//68 138//138 67//67
f 67//67 138//138 139//139
f 67//67 139//139 58//58
f 58//58 139//139 140//140
f 58//58 140//140 57//57
f 57//57 140//140 141//141
f 57//57 141//141 56//56
f 56//56 141//141 143//143
f 56//56 143//143 55//55
f 55//55 143//143 144//144
f 55//55 144//144 54//54
f 54//54 144//144 136//136
f 54//54 136//136 52//52
f 52//52 136//136 135//135
f 52//52 135//135 50//50
f 50//50 135//135 104//104
f 50//50 104//104 90//90
f 90//90 104//104 102//102
f 90//90 102//102 66//66
f 66//66 102//102 118//118
f 66//66 118//118 69//69
f 69//69 118//118 137//137
f 51//51 112//112 53//53
f 53//53 112//112 101//101
f 53//53 101//101 48//48
f 48//48 101//101 103//103
f 48//48 103//103 49//49
f 49//49 103//103 105//105
f 49//49 105//105 61//61
f 61//61 105//105 134//134
f 61//61 134//134 59//59
f 59//59 134//134 99//99
f 59//59 99//99 40//40
f 40//40 99//99 98//98
f 40//40 98//98 41//41
f 41//41 98//98 133//133
f 41//41 133//133 73//73
f 73//73 133//133 117//117
f 73//73 117//117 75//75
f 75//75 117//117 129//129
f 75//75 129//129 76//76
f 76//76 129//129 128//128
f 76//76 128//128 78//78
f 78//78 128//128 110//110
f 78//78 110//110 51//51
f 51//51 110//110 112//112
f 42//42 95//95 43//43
f 43//43 95//95 132//132
f 43//43 132//132 85//85
f 85//85 132//132 131//131
f 85//85 131//131 84//84
f 84//84 131//131 130//130
f 84//84 130//130 83//83
f 83//83 130//130 121//121
f 83//83 121//121 82//82
f 82//82 121//121 120//120
f 82//82 120//120 81//81
f 81//81 120//120 127//127
f 81//81 127//127 80//80
f 80//80 127//127 126//126
f 80//80 126//126 35//35
f 35//35 126//126 125//125
f 35//35 125//125 36//36
f 36//36 125//125 124//124
f 36//36 124//124 37//37
f 37//37 124//124 97//97
f 37//37 97//97 38//38
f 38//38 97//97 96//96
f 38//38 96//96 42//42
f 42//42 96//96 95//95
f 47//47 94//94 64//64
f 64//64 94//94 93//93
f 64//64 93//93 65//65
f 65//65 93//93 92//92
f 65//65 92//92 88//88
f 88//88 92//92 91//91
f 88//88 91//91 89//89
f 89//89 91//91 119//119
f 89//89 119//119 79//79
f 79//79 119//119 114//114
f 79//79 114//114 77//77
f 77//77 114//114 113//113
f 77//77 113//113 86//86
f 86//86 113//113 111//111
f 86//86 111//111 87//87
f 87//87 111//111 109//109
f 87//87 109//109 44//44
f 44//44 109//109 108//108
f 44//44 108//108 45//45
f 45//45 108//108 107//107
f 45//45 107//107 46//46
f 46//46 107//107 106//106
f 46//46 106//106 47//47
f 47//47 106//106 94//94
f 60//60 39//39 100//100
f 100//100 39//39 122//122
f 115//115 123//123 71//71
f 71//71 123//123 70//70
f 147//147 148//148 149//149
f 149//149 148//148 150//150
f 149//149 150//150 151//151
f 152//152 153//153 154//154
f 154//154 153//153 155//155
f 154//154 155//155 147//147
f 147//147 155//155 156//156
f 147//147 156//156 148//148
f 154//154 157//157 152//152
f 152//152 157//157 158//158
f 152//152 158//158 159//159
f 159//159 158//158 160//160
f 159//159 160//160 161//161
f 161//161 160//160 162//162
f 161//161 162//162 163//163
f 150//150 164//164 151//151
f 151//151 164//164 165//165
f 151//151 165//165 166//166
f 166//166 165//165 167//167
f 166//166 167//167 168//168
f 168//168 167//167 163//163
f 168//168 163//163 169//169
f 169//169 163//163 162//162
f 170//170 154//154 171//171
f 171//171 154//154 147//147
f 172//172 173//173 174//174
f 174//174 173//173 175//175
f 174//174 175//175 176//176
f 176//176 175//175 177//177
f 176//176 177//177 178//178
f 178//178 177//177 179//179
f 178//178 179//179 180//180
f 174//174 181//181 172//172
f 172//172 181//181 182//182
f 172//172 182//182 183//183
f 182//182 184//184 183//183
f 183//183 184//184 185//185
f 183//183 185//185 171//171
f 171//171 185//185 186//186
f 171//171 186//186 170//170
f 186//186 187//187 170//170
f 170//170 187//187 188//188
f 170//170 188//188 189//189
f 189//189 188//188 190//190
f 189//189 190//190 191//191
f 191//191 190//190 180//180
f 191//191 180//180 192//192
f 192//192 180//180 179//179
f 151//151 172//172 149//149
f 149//149 172//172 183//183
f 183//183 70//70 149//149
f 149//149 70//70 123//123
f 171//171 39//39 183//183
f 183//183 39//39 70//70
f 147//147 122//122 171//171
f 171//171 122//122 39//39
f 149//149 123//123 147//147
f 147//147 123//123 122//122
f 34//34 33//33 74//74
f 74//74 33//33 142//142
f 74//74 142//142 72//72
f 72//72 142//142 116//116
f 72//72 116//116 71//71
f 71//71 116//116 115//115
f 60//60 100//100 62//62
f 62//62 100//100 146//146
f 62//62 146//146 63//63
f 63//63 146//146 145//145
f 63//63 145//145 1//1
f 1//1 145//145 2//2
f 154//154 170//170 189//189
f 154//154 189//189 157//157
f 157//157 189//189 191//191
f 157//157 191//191 158//158
f 158//158 191//191 192//192
f 158//158 192//192 160//160
f 160//160 192//192 179//179
f 160//160 179//179 162//162
f 162//162 179//179 177//177
f 162//162 177//177 169//169
f 169//169 177//177 175//175
f 169//169 175//175 168//168
f 168//168 175//175 173//173
f 168//168 173//173 166//166
f 166//166 173//173 172//172
f 166//166 172//172 151//151
f 161//161 178//178 159//159
f 159//159 178//178 180//180
f 159//159 180//180 152//152
f 152//152 180//180 190//190
f 152//152 190//190 153//153
f 153//153 190//190 188//188
f 153//153 188//188 155//155
f 155//155 188//188 187//187
f 155//155 187//187 156//156
f 156//156 187//187 186//186
f 156//156 186//186 148//148
f 148//148 186//186 185//185
f 148//148 185//185 150//150
f 150//150 185//185 184//184
f 150//150 184//184 164//164
f 164//164 184//184 182//182
f 164//164 182//182 165//165
f 165//165 182//182 181//181
f 165//165 181//181 167//167
f 167//167 181//181 174//174
f 167//167 174//174 163//163
f 163//163 174//174 176//176
f 163//163 176//176 161//161
f 161//161 176//176 178//178
# 400 faces, 0 coords texture

# End of File
