####
#
# OBJ File Generated by Meshlab
#
####
# Object ruka-G-desna.obj
#
# Vertices: 196
# Faces: 404
#
####
vn -0.727973 -0.679179 0.093651
v -0.025250 -0.140577 0.163664
vn -0.770261 0.002059 -0.637725
v -0.025250 -0.137504 0.140924
vn -0.770262 0.320644 -0.551257
v -0.025250 -0.138128 0.140755
vn -0.770262 0.553314 -0.317079
v -0.025250 -0.130610 0.148321
vn -0.770262 0.320644 -0.551257
v -0.025250 -0.130154 0.148780
vn -0.770261 0.002059 -0.637725
v -0.025250 -0.129530 0.148950
vn -0.688006 -0.722736 -0.065578
v -0.025250 -0.140500 0.139665
vn -0.770260 0.553313 -0.317087
v -0.025250 -0.138584 0.140296
vn -0.770265 0.637721 0.002054
v -0.025250 -0.138750 0.139670
vn -0.670031 -0.696743 -0.256138
v -0.025250 -0.139824 0.135904
vn -0.670031 0.373235 -0.641681
v -0.025250 -0.123969 0.130191
vn -0.670031 0.131257 -0.730637
v -0.025250 -0.127555 0.128873
vn -0.770262 0.317077 0.553316
v -0.025250 -0.122122 0.138641
vn -0.688006 0.723143 -0.060921
v -0.025250 -0.118500 0.139735
vn -0.670031 0.698379 -0.251645
v -0.025250 -0.119151 0.135971
vn -0.770262 -0.553311 0.317085
v -0.025250 -0.120415 0.139104
vn -0.770261 -0.637725 -0.002052
v -0.025250 -0.120250 0.139730
vn -0.770264 -0.551255 -0.320642
v -0.025250 -0.120420 0.140354
vn -0.727972 0.678563 0.098026
v -0.025250 -0.118577 0.163735
vn -0.770259 -0.317085 -0.553316
v -0.025250 -0.120879 0.140810
vn -0.770264 0.002053 -0.637721
v -0.025250 -0.121504 0.140976
vn -0.770259 0.551262 0.320643
v -0.025250 -0.138580 0.139046
vn -0.770265 0.317082 0.553309
v -0.025250 -0.138121 0.138590
vn -0.670031 -0.567120 -0.478992
v -0.025250 -0.137904 0.132602
vn -0.770258 -0.002052 0.637729
v -0.025250 -0.137496 0.138424
vn -0.770266 -0.320639 0.551253
v -0.025250 -0.136871 0.138594
vn -0.770264 0.637722 0.002052
v -0.025250 -0.130724 0.131696
vn -0.770265 -0.317082 -0.553309
v -0.025250 -0.128904 0.148784
vn -0.770259 -0.551262 -0.320643
v -0.025250 -0.128445 0.148328
vn -0.670031 -0.369094 -0.644072
v -0.025250 -0.134969 0.130156
vn -0.770262 0.551257 0.320644
v -0.025250 -0.130555 0.131072
vn -0.670031 -0.126550 -0.731466
v -0.025250 -0.131375 0.128861
vn -0.770263 0.317079 0.553314
v -0.025250 -0.130096 0.130615
vn -0.770258 -0.002052 0.637729
v -0.025250 -0.129470 0.130450
vn -0.770264 -0.320636 0.551258
v -0.025250 -0.128846 0.130620
vn -0.770260 -0.553313 0.317087
v -0.025250 -0.128390 0.131079
vn -0.670031 0.570194 -0.475329
v -0.025250 -0.121051 0.132656
vn -0.770259 -0.002053 0.637728
v -0.025250 -0.121496 0.138476
vn -0.770263 -0.320635 0.551260
v -0.025250 -0.120872 0.138645
vn -0.770259 0.637728 0.002054
v -0.025250 -0.130776 0.147696
vn -0.770262 0.551263 0.320635
v -0.025250 -0.130606 0.147071
vn -0.770265 0.002052 -0.637721
v -0.025250 -0.129478 0.132950
vn -0.770265 0.317082 0.553309
v -0.025250 -0.130147 0.146615
vn -0.770265 -0.317082 -0.553309
v -0.025250 -0.136878 0.140759
vn -0.770259 -0.551262 -0.320643
v -0.025250 -0.136419 0.140303
vn -0.770265 -0.637721 -0.002054
v -0.025250 -0.136250 0.139678
vn -0.770258 -0.553318 0.317084
v -0.025250 -0.136415 0.139053
vn -0.770261 0.320644 -0.551258
v -0.025250 -0.130103 0.132781
vn -0.770260 0.553313 -0.317087
v -0.025250 -0.130559 0.132322
vn -0.770264 -0.637722 -0.002052
v -0.025250 -0.128224 0.131704
vn -0.770262 -0.551257 -0.320644
v -0.025250 -0.128394 0.132329
vn -0.770264 0.551255 0.320642
v -0.025250 -0.122581 0.139097
vn -0.770260 -0.317087 -0.553313
v -0.025250 -0.128853 0.132785
vn -0.770261 0.637725 0.002052
v -0.025250 -0.122750 0.139722
vn -0.770265 -0.637721 -0.002054
v -0.025250 -0.128276 0.147704
vn -0.770258 -0.553318 0.317084
v -0.025250 -0.128441 0.147078
vn -0.770260 0.320643 -0.551260
v -0.025250 -0.122129 0.140806
vn -0.770266 -0.320639 0.551253
v -0.025250 -0.128897 0.146619
vn -0.770262 0.553311 -0.317085
v -0.025250 -0.122585 0.140347
vn -0.770258 -0.002052 0.637729
v -0.025250 -0.129522 0.146450
vn 0.770262 0.320644 -0.551257
v -0.021250 -0.130154 0.148780
vn 0.770261 0.002059 -0.637725
v -0.021250 -0.129530 0.148950
vn 0.669352 -0.737413 -0.090496
v -0.021250 -0.140564 0.159664
vn 0.670031 -0.696743 -0.256138
v -0.021250 -0.139824 0.135904
vn 0.670031 -0.567120 -0.478991
v -0.021250 -0.137904 0.132602
vn 0.770258 -0.002052 0.637729
v -0.021250 -0.137496 0.138424
vn 0.770265 0.317082 0.553309
v -0.021250 -0.138121 0.138590
vn 0.770259 0.551262 0.320643
v -0.021250 -0.138580 0.139046
vn 0.688006 -0.722736 -0.065577
v -0.021250 -0.140500 0.139665
vn 0.669353 0.737980 -0.085745
v -0.021250 -0.118564 0.159735
vn 0.770262 -0.551257 -0.320644
v -0.021250 -0.128394 0.132329
vn 0.770264 -0.637722 -0.002052
v -0.021250 -0.128224 0.131704
vn 0.770262 0.317078 0.553316
v -0.021250 -0.122122 0.138641
vn 0.770265 -0.317082 -0.553309
v -0.021250 -0.128904 0.148784
vn 0.770259 -0.551262 -0.320643
v -0.021250 -0.128445 0.148328
vn 0.688005 0.723144 -0.060921
v -0.021250 -0.118500 0.139735
vn 0.670031 0.698379 -0.251645
v -0.021250 -0.119151 0.135971
vn 0.770263 -0.320635 0.551260
v -0.021250 -0.120872 0.138645
vn 0.670031 0.570194 -0.475328
v -0.021250 -0.121051 0.132656
vn 0.770259 -0.002053 0.637728
v -0.021250 -0.121496 0.138476
vn 0.670031 0.373235 -0.641681
v -0.021250 -0.123969 0.130191
vn 0.670031 0.131257 -0.730637
v -0.021250 -0.127555 0.128873
vn 0.770260 -0.553313 0.317087
v -0.021250 -0.128390 0.131079
vn 0.770264 -0.320636 0.551258
v -0.021250 -0.128846 0.130620
vn 0.770258 -0.002052 0.637729
v -0.021250 -0.129470 0.130450
vn 0.670031 -0.126550 -0.731466
v -0.021250 -0.131375 0.128861
vn 0.770263 0.317079 0.553314
v -0.021250 -0.130096 0.130615
vn 0.670031 -0.369094 -0.644072
v -0.021250 -0.134969 0.130156
vn 0.770262 0.551257 0.320644
v -0.021250 -0.130555 0.131072
vn 0.770264 0.637722 0.002052
v -0.021250 -0.130724 0.131696
vn 0.770265 0.317082 0.553309
v -0.021250 -0.130147 0.146615
vn 0.770265 0.637721 0.002054
v -0.021250 -0.138750 0.139670
vn 0.770260 0.553313 -0.317087
v -0.021250 -0.138584 0.140296
vn 0.770262 0.320644 -0.551257
v -0.021250 -0.138128 0.140755
vn 0.770261 0.551263 0.320635
v -0.021250 -0.130606 0.147071
vn 0.770259 0.637728 0.002054
v -0.021250 -0.130776 0.147696
vn 0.770263 0.553314 -0.317079
v -0.021250 -0.130610 0.148321
vn 0.770260 -0.317087 -0.553314
v -0.021250 -0.128853 0.132785
vn 0.770264 0.551255 0.320641
v -0.021250 -0.122581 0.139097
vn 0.770261 0.637725 0.002052
v -0.021250 -0.122750 0.139722
vn 0.770258 -0.002052 0.637729
v -0.021250 -0.129522 0.146450
vn 0.770260 0.553313 -0.317087
v -0.021250 -0.130559 0.132322
vn 0.770261 0.320644 -0.551257
v -0.021250 -0.130103 0.132781
vn 0.770265 0.002053 -0.637721
v -0.021250 -0.121504 0.140976
vn 0.770259 -0.317085 -0.553316
v -0.021250 -0.120879 0.140810
vn 0.770257 -0.553319 0.317084
v -0.021250 -0.128441 0.147078
vn 0.770265 -0.637721 -0.002054
v -0.021250 -0.128276 0.147704
vn 0.770259 -0.551262 -0.320643
v -0.021250 -0.136419 0.140303
vn 0.770265 -0.317082 -0.553309
v -0.021250 -0.136878 0.140759
vn 0.770261 0.002059 -0.637725
v -0.021250 -0.137504 0.140924
vn 0.770265 -0.637721 -0.002054
v -0.021250 -0.136250 0.139678
vn 0.770258 -0.553318 0.317084
v -0.021250 -0.136415 0.139053
vn 0.770266 -0.320639 0.551253
v -0.021250 -0.136871 0.138594
vn 0.770266 -0.320639 0.551253
v -0.021250 -0.128897 0.146619
vn 0.770262 0.553312 -0.317085
v -0.021250 -0.122585 0.140347
vn 0.770264 0.002052 -0.637722
v -0.021250 -0.129478 0.132950
vn 0.770264 -0.551255 -0.320641
v -0.021250 -0.120420 0.140354
vn 0.770261 -0.637725 -0.002052
v -0.021250 -0.120250 0.139730
vn 0.770262 -0.553311 0.317085
v -0.021250 -0.120415 0.139104
vn 0.770260 0.320643 -0.551260
v -0.021250 -0.122129 0.140806
vn 0.318863 -0.768480 -0.554766
v -0.018750 -0.140578 0.163995
vn -0.206454 -0.746115 0.633000
v -0.007160 -0.140595 0.169154
vn -0.054023 -0.727406 0.684078
v -0.010250 -0.140593 0.168664
vn 0.095840 -0.681217 0.725782
v -0.000250 -0.140870 0.254664
vn -0.056801 -0.723924 0.687537
v -0.060250 -0.140870 0.254664
vn -0.056800 -0.719480 -0.692187
v -0.060250 -0.140854 0.249664
vn 0.552288 -0.769231 -0.321344
v -0.020580 -0.140572 0.162164
vn -0.655721 -0.654443 0.376475
v -0.024580 -0.140585 0.166164
vn -0.095840 -0.681215 0.725783
v -0.020250 -0.140593 0.168664
vn -0.378581 -0.655334 0.653616
v -0.022750 -0.140591 0.167995
vn -0.054023 -0.722986 -0.688747
v -0.010250 -0.140854 0.249664
vn -0.206454 -0.742020 -0.637796
v -0.007160 -0.140853 0.249175
vn -0.392699 -0.742326 -0.542899
v -0.004372 -0.140848 0.247754
vn 0.727972 -0.679180 0.093654
v 0.004750 -0.140854 0.249664
vn -0.635401 -0.743403 -0.208849
v -0.000739 -0.140832 0.242754
vn -0.686415 -0.725023 -0.056357
v -0.000250 -0.140822 0.239664
vn 0.727973 -0.678562 -0.098025
v 0.004750 -0.140597 0.169664
vn 0.378583 -0.655336 0.653613
v 0.002250 -0.140868 0.253994
vn 0.655722 -0.654443 0.376475
v 0.004080 -0.140862 0.252164
vn -0.540505 -0.742803 -0.395093
v -0.002160 -0.140841 0.245542
vn -0.686415 -0.725371 0.051686
v -0.000250 -0.140626 0.178664
vn -0.635402 -0.744732 0.204057
v -0.000739 -0.140616 0.175574
vn 0.655721 -0.652005 -0.380683
v 0.004080 -0.140588 0.167164
vn -0.540503 -0.745333 0.390302
v -0.002160 -0.140607 0.172787
vn 0.378580 -0.651111 -0.657823
v 0.002250 -0.140583 0.165334
vn -0.392700 -0.745808 0.538105
v -0.004372 -0.140599 0.170574
vn 0.095839 -0.676526 -0.730156
v -0.000250 -0.140580 0.164664
vn 0.088128 -0.735532 -0.671734
v -0.016250 -0.140580 0.164664
vn 0.552289 0.771285 -0.316381
v -0.020580 -0.118573 0.162235
vn -0.056799 0.723923 -0.687539
v -0.060250 -0.118854 0.249735
vn -0.056799 0.719479 0.692188
v -0.060250 -0.118870 0.254735
vn -0.054022 0.727407 -0.684077
v -0.010250 -0.118854 0.249735
vn 0.095842 0.676525 0.730156
v -0.000250 -0.118870 0.254735
vn -0.206455 0.746114 -0.633001
v -0.007160 -0.118853 0.249245
vn -0.392700 0.745808 -0.538106
v -0.004372 -0.118848 0.247825
vn -0.655722 0.652004 0.380683
v -0.024580 -0.118585 0.166235
vn -0.378581 0.651112 0.657822
v -0.022750 -0.118591 0.168065
vn 0.318863 0.772036 -0.549806
v -0.018750 -0.118578 0.164065
vn -0.095840 0.676527 0.730155
v -0.020250 -0.118593 0.168735
vn 0.088121 0.739852 -0.666974
v -0.016250 -0.118581 0.164735
vn -0.054023 0.722987 0.688747
v -0.010250 -0.118593 0.168735
vn 0.095842 0.681215 -0.725783
v -0.000250 -0.118581 0.164735
vn -0.686415 0.725371 -0.051686
v -0.000250 -0.118822 0.239735
vn 0.727973 0.678562 0.098024
v 0.004750 -0.118854 0.249735
vn -0.686415 0.725023 0.056357
v -0.000250 -0.118626 0.178735
vn 0.727972 0.679180 -0.093654
v 0.004750 -0.118597 0.169735
vn -0.635402 0.743402 0.208849
v -0.000739 -0.118616 0.175645
vn -0.540505 0.742802 0.395093
v -0.002160 -0.118607 0.172857
vn -0.206454 0.742020 0.637796
v -0.007160 -0.118595 0.169225
vn -0.392699 0.742327 0.542898
v -0.004372 -0.118600 0.170645
vn 0.378582 0.655335 -0.653614
v 0.002250 -0.118583 0.165405
vn 0.655721 0.654443 -0.376476
v 0.004080 -0.118589 0.167235
vn -0.635401 0.744732 -0.204057
v -0.000739 -0.118832 0.242825
vn -0.540504 0.745332 -0.390302
v -0.002160 -0.118841 0.245613
vn 0.655722 0.652004 0.380684
v 0.004080 -0.118862 0.252235
vn 0.378582 0.651113 0.657820
v 0.002250 -0.118868 0.254065
vn -0.721705 -0.059020 0.689681
v -0.070250 -0.130870 0.254696
vn -0.721705 0.054577 0.690046
v -0.070250 -0.128870 0.254703
vn -0.721705 -0.054577 -0.690046
v -0.070250 -0.130854 0.249696
vn -0.721704 0.059019 -0.689681
v -0.070250 -0.128854 0.249703
vn -0.434470 0.595821 0.675451
v -0.066128 -0.120780 0.254729
vn -0.597991 0.432296 0.674927
v -0.068340 -0.122993 0.254722
vn -0.702980 0.226241 0.674265
v -0.069761 -0.125780 0.254713
vn -0.228413 0.700807 0.675794
v -0.063340 -0.119360 0.254733
vn -0.702983 -0.230580 0.672791
v -0.069761 -0.133960 0.254686
vn -0.597991 -0.436632 0.672131
v -0.068340 -0.136748 0.254677
vn -0.434462 -0.600156 0.671607
v -0.066128 -0.138960 0.254670
vn -0.228411 -0.705145 0.671267
v -0.063340 -0.140381 0.254666
vn -0.434466 -0.595818 -0.675456
v -0.066128 -0.138944 0.249670
vn -0.597990 -0.432296 -0.674928
v -0.068340 -0.136732 0.249677
vn -0.228413 -0.700809 -0.675792
v -0.063340 -0.140365 0.249666
vn -0.702980 -0.226242 -0.674266
v -0.069761 -0.133944 0.249686
vn -0.702981 0.230580 -0.672793
v -0.069761 -0.125764 0.249713
vn -0.597989 0.436631 -0.672133
v -0.068340 -0.122976 0.249722
vn -0.434467 0.600160 -0.671599
v -0.066128 -0.120764 0.249729
vn -0.228414 0.705149 -0.671261
v -0.063340 -0.119344 0.249733
# 196 vertices, 0 vertices normals

f 1//1 2//2 3//3
f 4//4 1//1 5//5
f 5//5 1//1 6//6
f 1//1 3//3 7//7
f 3//3 8//8 7//7
f 7//7 8//8 9//9
f 7//7 9//9 10//10
f 11//11 12//12 13//13
f 14//14 15//15 16//16
f 16//16 17//17 14//14
f 14//14 17//17 18//18
f 14//14 18//18 19//19
f 19//19 18//18 20//20
f 19//19 20//20 21//21
f 9//9 22//22 10//10
f 10//10 22//22 23//23
f 10//10 23//23 24//24
f 25//25 26//26 27//27
f 6//6 1//1 28//28
f 28//28 1//1 19//19
f 28//28 19//19 29//29
f 23//23 25//25 24//24
f 24//24 25//25 27//27
f 24//24 27//27 30//30
f 30//30 27//27 31//31
f 30//30 31//31 32//32
f 32//32 31//31 33//33
f 32//32 33//33 12//12
f 12//12 33//33 34//34
f 34//34 35//35 12//12
f 12//12 35//35 36//36
f 12//12 36//36 13//13
f 11//11 13//13 37//37
f 37//37 13//13 38//38
f 37//37 38//38 15//15
f 15//15 38//38 39//39
f 15//15 39//39 16//16
f 40//40 41//41 42//42
f 42//42 41//41 43//43
f 2//2 1//1 44//44
f 44//44 1//1 4//4
f 44//44 4//4 45//45
f 45//45 4//4 40//40
f 45//45 40//40 46//46
f 46//46 40//40 42//42
f 46//46 42//42 47//47
f 47//47 42//42 48//48
f 47//47 48//48 26//26
f 26//26 48//48 49//49
f 26//26 49//49 27//27
f 36//36 50//50 13//13
f 13//13 50//50 51//51
f 13//13 51//51 52//52
f 52//52 51//51 53//53
f 52//52 53//53 54//54
f 29//29 19//19 55//55
f 55//55 19//19 21//21
f 55//55 21//21 56//56
f 56//56 21//21 57//57
f 56//56 57//57 58//58
f 58//58 57//57 59//59
f 58//58 59//59 60//60
f 60//60 59//59 54//54
f 60//60 54//54 43//43
f 43//43 54//54 53//53
f 43//43 53//53 42//42
f 61//61 62//62 63//63
f 64//64 65//65 66//66
f 66//66 67//67 64//64
f 64//64 67//67 68//68
f 64//64 68//68 69//69
f 63//63 62//62 70//70
f 71//71 72//72 73//73
f 62//62 74//74 70//70
f 70//70 74//74 75//75
f 70//70 75//75 76//76
f 77//77 78//78 79//79
f 79//79 78//78 80//80
f 79//79 80//80 81//81
f 81//81 80//80 73//73
f 81//81 73//73 82//82
f 82//82 73//73 72//72
f 82//82 72//72 83//83
f 83//83 84//84 82//82
f 82//82 84//84 85//85
f 82//82 85//85 86//86
f 86//86 85//85 87//87
f 86//86 87//87 88//88
f 88//88 87//87 89//89
f 88//88 89//89 65//65
f 65//65 89//89 90//90
f 65//65 90//90 91//91
f 68//68 92//92 69//69
f 69//69 92//92 93//93
f 69//69 93//93 94//94
f 94//94 95//95 69//69
f 69//69 95//95 96//96
f 69//69 96//96 63//63
f 63//63 96//96 97//97
f 63//63 97//97 61//61
f 71//71 73//73 98//98
f 98//98 73//73 99//99
f 98//98 99//99 100//100
f 91//91 90//90 101//101
f 101//101 90//90 102//102
f 101//101 102//102 103//103
f 104//104 105//105 106//106
f 106//106 105//105 76//76
f 106//106 76//76 107//107
f 107//107 76//76 75//75
f 108//108 91//91 109//109
f 109//109 91//91 95//95
f 109//109 95//95 110//110
f 110//110 95//95 94//94
f 108//108 111//111 91//91
f 91//91 111//111 112//112
f 91//91 112//112 65//65
f 65//65 112//112 113//113
f 65//65 113//113 66//66
f 114//114 101//101 115//115
f 115//115 101//101 103//103
f 115//115 103//103 100//100
f 100//100 103//103 116//116
f 100//100 116//116 98//98
f 105//105 117//117 76//76
f 76//76 117//117 118//118
f 76//76 118//118 77//77
f 77//77 118//118 119//119
f 77//77 119//119 78//78
f 114//114 115//115 106//106
f 106//106 115//115 120//120
f 106//106 120//120 104//104
f 14//14 76//76 77//77
f 14//14 77//77 15//15
f 15//15 77//77 79//79
f 15//15 79//79 37//37
f 37//37 79//79 81//81
f 37//37 81//81 11//11
f 11//11 81//81 82//82
f 11//11 82//82 12//12
f 12//12 82//82 86//86
f 12//12 86//86 32//32
f 32//32 86//86 88//88
f 32//32 88//88 30//30
f 30//30 88//88 65//65
f 30//30 65//65 24//24
f 24//24 65//65 64//64
f 24//24 64//64 10//10
f 10//10 64//64 69//69
f 10//10 69//69 7//7
f 1//1 7//7 69//69
f 121//121 122//122 123//123
f 124//124 125//125 126//126
f 69//69 63//63 1//1
f 1//1 63//63 127//127
f 1//1 127//127 128//128
f 128//128 127//127 121//121
f 123//123 129//129 121//121
f 121//121 129//129 130//130
f 121//121 130//130 128//128
f 126//126 131//131 124//124
f 124//124 131//131 132//132
f 124//124 132//132 133//133
f 134//134 135//135 136//136
f 134//134 136//136 137//137
f 138//138 124//124 139//139
f 139//139 124//124 133//133
f 139//139 133//133 134//134
f 134//134 133//133 140//140
f 134//134 140//140 135//135
f 136//136 141//141 137//137
f 137//137 141//141 142//142
f 137//137 142//142 143//143
f 143//143 142//142 144//144
f 143//143 144//144 145//145
f 145//145 144//144 146//146
f 145//145 146//146 147//147
f 147//147 146//146 122//122
f 147//147 122//122 148//148
f 148//148 122//122 121//121
f 76//76 14//14 70//70
f 70//70 14//14 19//19
f 70//70 19//19 149//149
f 150//150 151//151 152//152
f 152//152 151//151 153//153
f 152//152 153//153 154//154
f 154//154 153//153 155//155
f 19//19 156//156 149//149
f 149//149 156//156 157//157
f 149//149 157//157 158//158
f 158//158 157//157 159//159
f 158//158 159//159 160//160
f 160//160 159//159 161//161
f 160//160 161//161 162//162
f 163//163 164//164 165//165
f 165//165 164//164 166//166
f 165//165 166//166 167//167
f 167//167 166//166 168//168
f 161//161 169//169 162//162
f 162//162 169//169 170//170
f 162//162 170//170 171//171
f 171//171 170//170 168//168
f 171//171 168//168 172//172
f 172//172 168//168 166//166
f 163//163 173//173 164//164
f 164//164 173//173 174//174
f 164//164 174//174 175//175
f 175//175 174//174 155//155
f 175//175 155//155 176//176
f 176//176 155//155 153//153
f 38//38 80//80 39//39
f 39//39 80//80 78//78
f 39//39 78//78 16//16
f 16//16 78//78 119//119
f 16//16 119//119 17//17
f 17//17 119//119 118//118
f 17//17 118//118 18//18
f 18//18 118//118 117//117
f 18//18 117//117 20//20
f 20//20 117//117 105//105
f 20//20 105//105 21//21
f 21//21 105//105 104//104
f 21//21 104//104 57//57
f 57//57 104//104 120//120
f 57//57 120//120 59//59
f 59//59 120//120 115//115
f 59//59 115//115 54//54
f 54//54 115//115 100//100
f 54//54 100//100 52//52
f 52//52 100//100 99//99
f 52//52 99//99 13//13
f 13//13 99//99 73//73
f 13//13 73//73 38//38
f 38//38 73//73 80//80
f 60//60 101//101 58//58
f 58//58 101//101 114//114
f 58//58 114//114 56//56
f 56//56 114//114 106//106
f 56//56 106//106 55//55
f 55//55 106//106 107//107
f 55//55 107//107 29//29
f 29//29 107//107 75//75
f 29//29 75//75 28//28
f 28//28 75//75 74//74
f 28//28 74//74 6//6
f 6//6 74//74 62//62
f 6//6 62//62 5//5
f 5//5 62//62 61//61
f 5//5 61//61 4//4
f 4//4 61//61 97//97
f 4//4 97//97 40//40
f 40//40 97//97 96//96
f 40//40 96//96 41//41
f 41//41 96//96 95//95
f 41//41 95//95 43//43
f 43//43 95//95 91//91
f 43//43 91//91 60//60
f 60//60 91//91 101//101
f 25//25 66//66 26//26
f 26//26 66//66 113//113
f 26//26 113//113 47//47
f 47//47 113//113 112//112
f 47//47 112//112 46//46
f 46//46 112//112 111//111
f 46//46 111//111 45//45
f 45//45 111//111 108//108
f 45//45 108//108 44//44
f 44//44 108//108 109//109
f 44//44 109//109 2//2
f 2//2 109//109 110//110
f 2//2 110//110 3//3
f 3//3 110//110 94//94
f 3//3 94//94 8//8
f 8//8 94//94 93//93
f 8//8 93//93 9//9
f 9//9 93//93 92//92
f 9//9 92//92 22//22
f 22//22 92//92 68//68
f 22//22 68//68 23//23
f 23//23 68//68 67//67
f 23//23 67//67 25//25
f 25//25 67//67 66//66
f 34//34 85//85 35//35
f 35//35 85//85 84//84
f 35//35 84//84 36//36
f 36//36 84//84 83//83
f 36//36 83//83 50//50
f 50//50 83//83 72//72
f 50//50 72//72 51//51
f 51//51 72//72 71//71
f 51//51 71//71 53//53
f 53//53 71//71 98//98
f 53//53 98//98 42//42
f 42//42 98//98 116//116
f 42//42 116//116 48//48
f 48//48 116//116 103//103
f 48//48 103//103 49//49
f 49//49 103//103 102//102
f 49//49 102//102 27//27
f 27//27 102//102 90//90
f 27//27 90//90 31//31
f 31//31 90//90 89//89
f 31//31 89//89 33//33
f 33//33 89//89 87//87
f 33//33 87//87 34//34
f 34//34 87//87 85//85
f 147//147 148//148 162//162
f 162//162 148//148 160//160
f 129//129 123//123 159//159
f 159//159 123//123 161//161
f 141//141 136//136 165//165
f 165//165 136//136 163//163
f 134//134 137//137 164//164
f 164//164 137//137 166//166
f 177//177 178//178 179//179
f 179//179 178//178 180//180
f 125//125 124//124 177//177
f 177//177 124//124 178//178
f 181//181 182//182 183//183
f 124//124 153//153 178//178
f 178//178 153//153 151//151
f 178//178 151//151 183//183
f 183//183 151//151 184//184
f 183//183 184//184 181//181
f 177//177 185//185 186//186
f 186//186 187//187 177//177
f 177//177 187//187 188//188
f 177//177 188//188 125//125
f 189//189 190//190 191//191
f 191//191 190//190 126//126
f 152//152 131//131 179//179
f 179//179 131//131 126//126
f 179//179 126//126 192//192
f 192//192 126//126 190//190
f 152//152 179//179 150//150
f 150//150 179//179 180//180
f 150//150 180//180 193//193
f 193//193 194//194 150//150
f 150//150 194//194 195//195
f 150//150 195//195 196//196
f 131//131 152//152 132//132
f 132//132 152//152 154//154
f 132//132 154//154 133//133
f 133//133 154//154 155//155
f 133//133 155//155 140//140
f 140//140 155//155 174//174
f 140//140 174//174 135//135
f 135//135 174//174 173//173
f 135//135 173//173 136//136
f 136//136 173//173 163//163
f 161//161 123//123 169//169
f 169//169 123//123 122//122
f 169//169 122//122 170//170
f 170//170 122//122 146//146
f 170//170 146//146 168//168
f 168//168 146//146 144//144
f 168//168 144//144 167//167
f 167//167 144//144 142//142
f 167//167 142//142 165//165
f 165//165 142//142 141//141
f 19//19 1//1 128//128
f 19//19 128//128 156//156
f 156//156 128//128 130//130
f 156//156 130//130 157//157
f 157//157 130//130 129//129
f 157//157 129//129 159//159
f 147//147 162//162 171//171
f 147//147 171//171 145//145
f 145//145 171//171 172//172
f 145//145 172//172 143//143
f 143//143 172//172 166//166
f 143//143 166//166 137//137
f 160//160 148//148 158//158
f 158//158 148//148 121//121
f 158//158 121//121 149//149
f 149//149 121//121 127//127
f 149//149 127//127 70//70
f 70//70 127//127 63//63
f 134//134 164//164 175//175
f 134//134 175//175 139//139
f 139//139 175//175 176//176
f 139//139 176//176 138//138
f 138//138 176//176 153//153
f 138//138 153//153 124//124
f 177//177 179//179 192//192
f 177//177 192//192 185//185
f 185//185 192//192 190//190
f 185//185 190//190 186//186
f 186//186 190//190 189//189
f 186//186 189//189 187//187
f 187//187 189//189 191//191
f 187//187 191//191 188//188
f 188//188 191//191 126//126
f 188//188 126//126 125//125
f 151//151 150//150 196//196
f 151//151 196//196 184//184
f 184//184 196//196 195//195
f 184//184 195//195 181//181
f 181//181 195//195 194//194
f 181//181 194//194 182//182
f 182//182 194//194 193//193
f 182//182 193//193 183//183
f 183//183 193//193 180//180
f 183//183 180//180 178//178
# 404 faces, 0 coords texture

# End of File
