####
#
# OBJ File Generated by Meshlab
#
####
# Object switch.obj
#
# Vertices: 164
# Faces: 336
#
####
vn 0.241861 0.278062 0.929616
v 0.006250 0.007002 0.010750
vn 0.577350 0.577350 0.577350
v 0.007500 0.010500 0.010750
vn -0.241861 0.278062 0.929616
v -0.006250 0.007002 0.010750
vn -0.577350 0.577350 0.577350
v -0.007500 0.010500 0.010750
vn -0.241860 -0.278061 0.929616
v -0.006250 -0.007002 0.010750
vn -0.577350 -0.577350 0.577350
v -0.007500 -0.010500 0.010750
vn 0.241860 -0.278061 0.929616
v 0.006250 -0.007002 0.010750
vn 0.577350 -0.577350 0.577350
v 0.007500 -0.010500 0.010750
vn -0.297106 0.630263 -0.717284
v -0.003250 -0.006250 -0.013750
vn 0.297106 0.630263 -0.717284
v 0.003250 -0.006250 -0.013750
vn -0.297106 -0.630263 -0.717284
v -0.003250 -0.007250 -0.013750
vn 0.297106 -0.630263 -0.717284
v 0.003250 -0.007250 -0.013750
vn -0.297106 0.630263 -0.717284
v -0.003250 0.000750 -0.013750
vn 0.297106 0.630263 -0.717284
v 0.003250 0.000750 -0.013750
vn -0.297106 -0.630263 -0.717284
v -0.003250 -0.000750 -0.013750
vn 0.297106 -0.630263 -0.717284
v 0.003250 -0.000750 -0.013750
vn -0.653226 0.731363 0.195969
v -0.006250 0.010500 0.006585
vn -0.450036 0.292306 -0.843816
v -0.006250 0.009250 0.008750
vn 0.653226 0.731363 0.195969
v 0.006250 0.010500 0.006585
vn 0.450036 0.292306 -0.843816
v 0.006250 0.009250 0.008750
vn -0.450036 -0.292306 -0.843816
v -0.006250 -0.009250 0.008750
vn -0.653227 -0.731363 0.195969
v -0.006250 -0.010500 0.006585
vn 0.450036 -0.292306 -0.843816
v 0.006250 -0.009250 0.008750
vn 0.653227 -0.731363 0.195969
v 0.006250 -0.010500 0.006585
vn -0.653227 0.731363 -0.195969
v -0.006250 0.010500 0.002675
vn 0.653226 0.731363 -0.195969
v 0.006250 0.010500 0.002675
vn 0.653226 -0.731363 -0.195969
v 0.006250 -0.010500 0.002675
vn -0.653227 -0.731363 -0.195969
v -0.006250 -0.010500 0.002675
vn -0.297106 0.630263 -0.717284
v -0.003250 0.007250 -0.013750
vn 0.297106 0.630263 -0.717284
v 0.003250 0.007250 -0.013750
vn -0.297106 -0.630263 -0.717284
v -0.003250 0.006250 -0.013750
vn 0.297106 -0.630263 -0.717284
v 0.003250 0.006250 -0.013750
vn 0.577350 -0.577350 -0.577350
v 0.007500 -0.010500 0.008750
vn 0.577350 0.577350 -0.577350
v 0.007500 0.010500 0.008750
vn -0.577350 -0.577350 -0.577350
v -0.007500 -0.010500 0.008750
vn -0.577350 0.577350 -0.577350
v -0.007500 0.010500 0.008750
vn -0.577350 0.577350 -0.577350
v -0.006250 0.009250 -0.006250
vn -0.577350 -0.577350 -0.577350
v -0.006250 -0.009250 -0.006250
vn -0.770262 0.615997 -0.165057
v -0.006250 0.009250 0.000510
vn -0.770262 -0.615997 -0.165057
v -0.006250 -0.009250 0.000510
vn 0.770262 0.615997 -0.165057
v 0.006250 0.009250 0.000510
vn 0.770262 -0.615997 -0.165057
v 0.006250 -0.009250 0.000510
vn 0.577350 -0.577350 -0.577351
v 0.006250 -0.009250 -0.006250
vn 0.577350 0.577350 -0.577350
v 0.006250 0.009250 -0.006250
vn 0.318872 0.770269 0.552275
v -0.000353 0.007250 -0.012242
vn -0.000000 0.770261 0.637729
v -0.000000 0.007250 -0.012337
vn -0.552286 0.770265 -0.318860
v 0.000612 0.007250 -0.008644
vn -0.318860 0.770261 -0.552292
v 0.000353 0.007250 -0.008385
vn 0.301511 0.301511 -0.904534
v 0.004250 0.007250 -0.006250
vn -0.000000 0.770261 -0.637729
v -0.000000 0.007250 -0.008290
vn -0.301511 0.301512 -0.904534
v -0.004250 0.007250 -0.006250
vn 0.318860 0.770261 -0.552292
v -0.000353 0.007250 -0.008385
vn -0.318872 0.770269 0.552275
v 0.000353 0.007250 -0.012242
vn -0.552302 0.770255 0.318856
v 0.000612 0.007250 -0.011984
vn 0.717283 0.630262 -0.297111
v 0.004250 0.007250 -0.012750
vn -0.669352 0.737701 0.088123
v 0.000707 0.007250 -0.011630
vn -0.669356 0.737698 -0.088117
v 0.000707 0.007250 -0.008997
vn 0.552286 0.770265 -0.318860
v -0.000612 0.007250 -0.008644
vn 0.669355 0.737698 -0.088117
v -0.000707 0.007250 -0.008997
vn -0.717283 0.630262 -0.297111
v -0.004250 0.007250 -0.012750
vn 0.669352 0.737701 0.088123
v -0.000707 0.007250 -0.011630
vn 0.552302 0.770255 0.318856
v -0.000612 0.007250 -0.011984
vn -0.301511 0.301512 -0.904534
v -0.004250 -0.006250 -0.006250
vn -0.301511 -0.301512 -0.904534
v -0.004250 -0.007250 -0.006250
vn 0.301511 -0.301511 -0.904534
v 0.004250 0.006250 -0.006250
vn -0.301511 -0.301512 -0.904534
v -0.004250 0.006250 -0.006250
vn 0.301511 -0.301511 -0.904534
v 0.004250 -0.007250 -0.006250
vn 0.301511 0.301511 -0.904534
v 0.004250 -0.006250 -0.006250
vn -0.301511 -0.301512 -0.904534
v -0.004250 -0.000750 -0.006250
vn -0.301511 0.301512 -0.904534
v -0.004250 0.000750 -0.006250
vn 0.301511 0.301511 -0.904534
v 0.004250 0.000750 -0.006250
vn 0.301511 -0.301511 -0.904534
v 0.004250 -0.000750 -0.006250
vn 0.552302 0.770255 0.318856
v -0.000612 0.000750 -0.011984
vn 0.669352 0.737701 0.088123
v -0.000707 0.000750 -0.011630
vn -0.717283 0.630262 -0.297111
v -0.004250 0.000750 -0.012750
vn 0.669355 0.737698 -0.088117
v -0.000707 0.000750 -0.008997
vn 0.552286 0.770265 -0.318860
v -0.000612 0.000750 -0.008644
vn 0.318872 0.770269 0.552275
v -0.000353 0.000750 -0.012242
vn -0.000000 0.770261 0.637729
v -0.000000 0.000750 -0.012337
vn -0.318872 0.770269 0.552275
v 0.000353 0.000750 -0.012242
vn -0.552302 0.770255 0.318856
v 0.000612 0.000750 -0.011984
vn 0.717283 0.630262 -0.297111
v 0.004250 0.000750 -0.012750
vn -0.669352 0.737701 0.088123
v 0.000707 0.000750 -0.011630
vn -0.669356 0.737698 -0.088117
v 0.000707 0.000750 -0.008997
vn -0.552286 0.770265 -0.318860
v 0.000612 0.000750 -0.008644
vn -0.318860 0.770261 -0.552292
v 0.000353 0.000750 -0.008385
vn -0.000000 0.770261 -0.637729
v -0.000000 0.000750 -0.008290
vn 0.318860 0.770261 -0.552291
v -0.000353 0.000750 -0.008385
vn -0.552302 -0.770255 0.318856
v 0.000612 0.006250 -0.011984
vn -0.318872 -0.770269 0.552275
v 0.000353 0.006250 -0.012242
vn 0.000000 -0.770261 0.637729
v -0.000000 0.006250 -0.012337
vn -0.669352 -0.737701 0.088123
v 0.000707 0.006250 -0.011630
vn 0.717283 -0.630262 -0.297111
v 0.004250 0.006250 -0.012750
vn -0.669355 -0.737698 -0.088117
v 0.000707 0.006250 -0.008997
vn -0.552286 -0.770265 -0.318860
v 0.000612 0.006250 -0.008644
vn 0.552286 -0.770265 -0.318860
v -0.000612 0.006250 -0.008644
vn 0.318860 -0.770261 -0.552292
v -0.000353 0.006250 -0.008385
vn 0.000000 -0.770261 -0.637729
v -0.000000 0.006250 -0.008290
vn -0.318860 -0.770261 -0.552292
v 0.000353 0.006250 -0.008385
vn 0.318872 -0.770269 0.552275
v -0.000353 0.006250 -0.012242
vn 0.552302 -0.770255 0.318856
v -0.000612 0.006250 -0.011984
vn -0.717283 -0.630262 -0.297111
v -0.004250 0.006250 -0.012750
vn 0.669352 -0.737701 0.088123
v -0.000707 0.006250 -0.011630
vn 0.669356 -0.737698 -0.088117
v -0.000707 0.006250 -0.008997
vn 0.552302 0.770255 0.318856
v -0.000612 -0.006250 -0.011984
vn 0.669352 0.737701 0.088123
v -0.000707 -0.006250 -0.011630
vn -0.717283 0.630262 -0.297111
v -0.004250 -0.006250 -0.012750
vn 0.669355 0.737698 -0.088117
v -0.000707 -0.006250 -0.008997
vn 0.552286 0.770265 -0.318860
v -0.000612 -0.006250 -0.008644
vn 0.318872 0.770269 0.552275
v -0.000353 -0.006250 -0.012242
vn -0.000000 0.770261 0.637729
v 0.000000 -0.006250 -0.012337
vn -0.318872 0.770269 0.552275
v 0.000353 -0.006250 -0.012242
vn -0.552302 0.770255 0.318856
v 0.000612 -0.006250 -0.011984
vn 0.717283 0.630262 -0.297111
v 0.004250 -0.006250 -0.012750
vn -0.669352 0.737701 0.088123
v 0.000707 -0.006250 -0.011630
vn -0.669356 0.737698 -0.088117
v 0.000707 -0.006250 -0.008997
vn -0.552286 0.770265 -0.318860
v 0.000612 -0.006250 -0.008644
vn -0.318860 0.770261 -0.552292
v 0.000353 -0.006250 -0.008385
vn -0.000000 0.770261 -0.637729
v 0.000000 -0.006250 -0.008290
vn 0.318860 0.770261 -0.552292
v -0.000353 -0.006250 -0.008385
vn 0.000000 -0.770261 0.637729
v 0.000000 -0.000750 -0.012337
vn -0.318872 -0.770269 0.552275
v 0.000353 -0.000750 -0.012242
vn -0.318860 -0.770261 -0.552291
v 0.000353 -0.000750 -0.008385
vn 0.000000 -0.770261 -0.637729
v 0.000000 -0.000750 -0.008290
vn 0.318860 -0.770261 -0.552292
v -0.000353 -0.000750 -0.008385
vn 0.552286 -0.770265 -0.318860
v -0.000612 -0.000750 -0.008644
vn -0.552286 -0.770265 -0.318860
v 0.000612 -0.000750 -0.008644
vn -0.669355 -0.737698 -0.088117
v 0.000707 -0.000750 -0.008997
vn 0.717283 -0.630262 -0.297111
v 0.004250 -0.000750 -0.012750
vn -0.669352 -0.737701 0.088123
v 0.000707 -0.000750 -0.011630
vn -0.552302 -0.770255 0.318856
v 0.000612 -0.000750 -0.011984
vn 0.318872 -0.770269 0.552275
v -0.000353 -0.000750 -0.012242
vn 0.552302 -0.770255 0.318856
v -0.000612 -0.000750 -0.011984
vn -0.717283 -0.630262 -0.297111
v -0.004250 -0.000750 -0.012750
vn 0.669352 -0.737701 0.088123
v -0.000707 -0.000750 -0.011630
vn 0.669356 -0.737698 -0.088117
v -0.000707 -0.000750 -0.008997
vn -0.552302 -0.770255 0.318856
v 0.000612 -0.007250 -0.011984
vn -0.669352 -0.737701 0.088123
v 0.000707 -0.007250 -0.011630
vn 0.717283 -0.630262 -0.297111
v 0.004250 -0.007250 -0.012750
vn -0.669355 -0.737698 -0.088117
v 0.000707 -0.007250 -0.008997
vn -0.552286 -0.770265 -0.318860
v 0.000612 -0.007250 -0.008644
vn -0.318872 -0.770269 0.552275
v 0.000353 -0.007250 -0.012242
vn 0.000000 -0.770261 0.637729
v 0.000000 -0.007250 -0.012337
vn 0.552286 -0.770265 -0.318860
v -0.000612 -0.007250 -0.008644
vn 0.318860 -0.770261 -0.552292
v -0.000353 -0.007250 -0.008385
vn 0.000000 -0.770261 -0.637729
v 0.000000 -0.007250 -0.008290
vn -0.318860 -0.770261 -0.552292
v 0.000353 -0.007250 -0.008385
vn 0.318872 -0.770269 0.552275
v -0.000353 -0.007250 -0.012242
vn 0.552302 -0.770255 0.318856
v -0.000612 -0.007250 -0.011984
vn -0.717283 -0.630262 -0.297111
v -0.004250 -0.007250 -0.012750
vn 0.669352 -0.737701 0.088123
v -0.000707 -0.007250 -0.011630
vn 0.669356 -0.737698 -0.088117
v -0.000707 -0.007250 -0.008997
vn 0.578243 0.425319 0.696232
v 0.006250 0.006250 0.013750
vn -0.578243 0.425319 0.696232
v -0.006250 0.006250 0.013750
vn 0.578243 -0.425318 0.696232
v 0.006250 -0.006250 0.013750
vn -0.578243 -0.425318 0.696232
v -0.006250 -0.006250 0.013750
vn 0.720189 0.118355 0.683608
v 0.006250 -0.003783 0.013176
vn 0.720189 -0.118355 0.683608
v 0.006250 0.003783 0.013176
vn 0.720191 -0.039626 0.692643
v 0.006250 0.001266 0.012887
vn 0.720191 0.039626 0.692643
v 0.006250 -0.001266 0.012887
vn -0.720189 -0.118355 0.683608
v -0.006250 0.003783 0.013176
vn -0.720189 0.118354 0.683608
v -0.006250 -0.003783 0.013176
vn -0.720191 0.039626 0.692643
v -0.006250 -0.001266 0.012887
vn -0.720191 -0.039626 0.692643
v -0.006250 0.001266 0.012887
# 164 vertices, 0 vertices normals

f 1//1 2//2 3//3
f 3//3 2//2 4//4
f 3//3 4//4 5//5
f 5//5 4//4 6//6
f 5//5 6//6 7//7
f 7//7 6//6 8//8
f 7//7 8//8 1//1
f 1//1 8//8 2//2
f 9//9 10//10 11//11
f 11//11 10//10 12//12
f 13//13 14//14 15//15
f 15//15 14//14 16//16
f 17//17 18//18 19//19
f 19//19 18//18 20//20
f 21//21 22//22 23//23
f 23//23 22//22 24//24
f 25//25 17//17 26//26
f 26//26 17//17 19//19
f 27//27 24//24 28//28
f 28//28 24//24 22//22
f 29//29 30//30 31//31
f 31//31 30//30 32//32
f 33//33 34//34 8//8
f 8//8 34//34 2//2
f 6//6 4//4 35//35
f 35//35 4//4 36//36
f 20//20 34//34 23//23
f 23//23 34//34 33//33
f 23//23 33//33 21//21
f 21//21 33//33 35//35
f 21//21 35//35 18//18
f 18//18 35//35 36//36
f 18//18 36//36 20//20
f 20//20 36//36 34//34
f 4//4 2//2 36//36
f 36//36 2//2 34//34
f 37//37 38//38 39//39
f 39//39 38//38 40//40
f 39//39 40//40 25//25
f 25//25 40//40 17//17
f 21//21 18//18 22//22
f 22//22 18//18 17//17
f 22//22 17//17 28//28
f 28//28 17//17 40//40
f 41//41 26//26 19//19
f 42//42 43//43 44//44
f 44//44 41//41 42//42
f 42//42 41//41 19//19
f 42//42 19//19 27//27
f 27//27 19//19 20//20
f 27//27 20//20 24//24
f 24//24 20//20 23//23
f 8//8 6//6 33//33
f 33//33 6//6 35//35
f 37//37 39//39 44//44
f 44//44 39//39 41//41
f 26//26 41//41 25//25
f 25//25 41//41 39//39
f 45//45 46//46 29//29
f 47//47 48//48 49//49
f 49//49 48//48 50//50
f 49//49 50//50 51//51
f 51//51 50//50 52//52
f 29//29 46//46 30//30
f 46//46 53//53 30//30
f 30//30 53//53 54//54
f 30//30 54//54 55//55
f 55//55 54//54 56//56
f 55//55 56//56 49//49
f 49//49 56//56 57//57
f 49//49 57//57 47//47
f 52//52 58//58 51//51
f 51//51 58//58 59//59
f 51//51 59//59 60//60
f 60//60 59//59 61//61
f 60//60 61//61 29//29
f 29//29 61//61 62//62
f 29//29 62//62 45//45
f 63//63 64//64 38//38
f 43//43 65//65 44//44
f 44//44 65//65 49//49
f 44//44 49//49 37//37
f 37//37 49//49 51//51
f 37//37 51//51 66//66
f 38//38 64//64 43//43
f 43//43 64//64 67//67
f 43//43 67//67 68//68
f 69//69 37//37 70//70
f 70//70 37//37 66//66
f 70//70 66//66 71//71
f 38//38 37//37 63//63
f 63//63 37//37 69//69
f 63//63 69//69 68//68
f 68//68 69//69 72//72
f 68//68 72//72 43//43
f 43//43 72//72 71//71
f 43//43 71//71 65//65
f 65//65 71//71 66//66
f 73//73 13//13 74//74
f 74//74 13//13 75//75
f 74//74 75//75 76//76
f 76//76 75//75 70//70
f 76//76 70//70 77//77
f 73//73 78//78 13//13
f 13//13 78//78 79//79
f 13//13 79//79 14//14
f 79//79 80//80 14//14
f 14//14 80//80 81//81
f 14//14 81//81 82//82
f 82//82 81//81 83//83
f 82//82 83//83 71//71
f 71//71 83//83 84//84
f 71//71 84//84 85//85
f 85//85 86//86 71//71
f 71//71 86//86 87//87
f 71//71 87//87 70//70
f 70//70 87//87 88//88
f 70//70 88//88 77//77
f 89//89 90//90 32//32
f 32//32 90//90 91//91
f 32//32 91//91 31//31
f 89//89 32//32 92//92
f 92//92 32//32 93//93
f 92//92 93//93 94//94
f 94//94 93//93 65//65
f 94//94 65//65 95//95
f 96//96 97//97 66//66
f 66//66 97//97 98//98
f 66//66 98//98 65//65
f 65//65 98//98 99//99
f 65//65 99//99 95//95
f 91//91 100//100 31//31
f 31//31 100//100 101//101
f 31//31 101//101 102//102
f 102//102 101//101 103//103
f 102//102 103//103 66//66
f 66//66 103//103 104//104
f 66//66 104//104 96//96
f 105//105 9//9 106//106
f 106//106 9//9 107//107
f 106//106 107//107 108//108
f 108//108 107//107 63//63
f 108//108 63//63 109//109
f 105//105 110//110 9//9
f 9//9 110//110 111//111
f 9//9 111//111 10//10
f 111//111 112//112 10//10
f 10//10 112//112 113//113
f 10//10 113//113 114//114
f 114//114 113//113 115//115
f 114//114 115//115 68//68
f 68//68 115//115 116//116
f 68//68 116//116 117//117
f 117//117 118//118 68//68
f 68//68 118//118 119//119
f 68//68 119//119 63//63
f 63//63 119//119 120//120
f 63//63 120//120 109//109
f 15//15 16//16 121//121
f 121//121 16//16 122//122
f 123//123 72//72 124//124
f 124//124 72//72 69//69
f 124//124 69//69 125//125
f 125//125 69//69 126//126
f 123//123 127//127 72//72
f 72//72 127//127 128//128
f 72//72 128//128 129//129
f 129//129 128//128 130//130
f 129//129 130//130 16//16
f 16//16 130//130 131//131
f 16//16 131//131 122//122
f 121//121 132//132 15//15
f 15//15 132//132 133//133
f 15//15 133//133 134//134
f 134//134 133//133 135//135
f 134//134 135//135 69//69
f 69//69 135//135 136//136
f 69//69 136//136 126//126
f 137//137 12//12 138//138
f 138//138 12//12 139//139
f 138//138 139//139 140//140
f 140//140 139//139 67//67
f 140//140 67//67 141//141
f 137//137 142//142 12//12
f 12//12 142//142 143//143
f 12//12 143//143 11//11
f 144//144 145//145 64//64
f 64//64 145//145 146//146
f 64//64 146//146 67//67
f 67//67 146//146 147//147
f 67//67 147//147 141//141
f 143//143 148//148 11//11
f 11//11 148//148 149//149
f 11//11 149//149 150//150
f 150//150 149//149 151//151
f 150//150 151//151 64//64
f 64//64 151//151 152//152
f 64//64 152//152 144//144
f 42//42 27//27 40//40
f 40//40 27//27 28//28
f 43//43 42//42 38//38
f 38//38 42//42 40//40
f 153//153 1//1 154//154
f 154//154 1//1 3//3
f 7//7 155//155 5//5
f 5//5 155//155 156//156
f 157//157 155//155 7//7
f 153//153 158//158 1//1
f 1//1 158//158 159//159
f 1//1 159//159 7//7
f 7//7 159//159 160//160
f 7//7 160//160 157//157
f 161//161 154//154 3//3
f 156//156 162//162 5//5
f 5//5 162//162 163//163
f 5//5 163//163 3//3
f 3//3 163//163 164//164
f 3//3 164//164 161//161
f 153//153 154//154 158//158
f 158//158 154//154 161//161
f 158//158 161//161 159//159
f 159//159 161//161 164//164
f 159//159 164//164 160//160
f 160//160 164//164 163//163
f 160//160 163//163 157//157
f 157//157 163//163 162//162
f 157//157 162//162 155//155
f 155//155 162//162 156//156
f 139//139 114//114 67//67
f 67//67 114//114 68//68
f 12//12 10//10 139//139
f 139//139 10//10 114//114
f 150//150 107//107 11//11
f 11//11 107//107 9//9
f 64//64 63//63 150//150
f 150//150 63//63 107//107
f 129//129 82//82 72//72
f 72//72 82//82 71//71
f 16//16 14//14 129//129
f 129//129 14//14 82//82
f 134//134 75//75 15//15
f 15//15 75//75 13//13
f 69//69 70//70 134//134
f 134//134 70//70 75//75
f 93//93 55//55 65//65
f 65//65 55//55 49//49
f 32//32 30//30 93//93
f 93//93 30//30 55//55
f 66//66 51//51 102//102
f 102//102 51//51 60//60
f 102//102 60//60 31//31
f 31//31 60//60 29//29
f 151//151 106//106 152//152
f 152//152 106//106 108//108
f 106//106 151//151 105//105
f 105//105 151//151 149//149
f 105//105 149//149 110//110
f 110//110 149//149 148//148
f 110//110 148//148 111//111
f 111//111 148//148 143//143
f 111//111 143//143 112//112
f 112//112 143//143 142//142
f 112//112 142//142 113//113
f 113//113 142//142 137//137
f 113//113 137//137 115//115
f 115//115 137//137 138//138
f 140//140 116//116 138//138
f 138//138 116//116 115//115
f 116//116 140//140 117//117
f 117//117 140//140 141//141
f 117//117 141//141 118//118
f 118//118 141//141 147//147
f 118//118 147//147 119//119
f 119//119 147//147 146//146
f 119//119 146//146 120//120
f 120//120 146//146 145//145
f 120//120 145//145 109//109
f 109//109 145//145 144//144
f 109//109 144//144 108//108
f 108//108 144//144 152//152
f 135//135 74//74 136//136
f 136//136 74//74 76//76
f 74//74 135//135 73//73
f 73//73 135//135 133//133
f 73//73 133//133 78//78
f 78//78 133//133 132//132
f 78//78 132//132 79//79
f 79//79 132//132 121//121
f 79//79 121//121 80//80
f 80//80 121//121 122//122
f 80//80 122//122 81//81
f 81//81 122//122 131//131
f 81//81 131//131 83//83
f 83//83 131//131 130//130
f 128//128 84//84 130//130
f 130//130 84//84 83//83
f 84//84 128//128 85//85
f 85//85 128//128 127//127
f 85//85 127//127 86//86
f 86//86 127//127 123//123
f 86//86 123//123 87//87
f 87//87 123//123 124//124
f 87//87 124//124 88//88
f 88//88 124//124 125//125
f 88//88 125//125 77//77
f 77//77 125//125 126//126
f 77//77 126//126 76//76
f 76//76 126//126 136//136
f 57//57 94//94 47//47
f 47//47 94//94 95//95
f 47//47 95//95 48//48
f 48//48 95//95 99//99
f 48//48 99//99 50//50
f 50//50 99//99 98//98
f 50//50 98//98 52//52
f 52//52 98//98 97//97
f 52//52 97//97 58//58
f 58//58 97//97 96//96
f 58//58 96//96 59//59
f 59//59 96//96 104//104
f 94//94 57//57 92//92
f 92//92 57//57 56//56
f 61//61 103//103 62//62
f 62//62 103//103 101//101
f 62//62 101//101 45//45
f 45//45 101//101 100//100
f 45//45 100//100 46//46
f 46//46 100//100 91//91
f 46//46 91//91 53//53
f 53//53 91//91 90//90
f 53//53 90//90 54//54
f 54//54 90//90 89//89
f 54//54 89//89 56//56
f 56//56 89//89 92//92
f 103//103 61//61 104//104
f 104//104 61//61 59//59
# 336 faces, 0 coords texture

# End of File
